<?xml version="1.0" encoding="utf-8"?>
<!-- Generator: Adobe Illustrator 15.0.0, SVG Export Plug-In  -->
<!DOCTYPE svg PUBLIC "-//W3C//DTD SVG 1.1//EN" "http://www.w3.org/Graphics/SVG/1.1/DTD/svg11.dtd" [
	<!ENTITY ns_flows "http://ns.adobe.com/Flows/1.0/">
]>
<svg version="1.1"
	 xmlns="http://www.w3.org/2000/svg" xmlns:xlink="http://www.w3.org/1999/xlink" xmlns:a="http://ns.adobe.com/AdobeSVGViewerExtensions/3.0/"
	 x="0px" y="0px" width="50px" height="50px" viewBox="-0.151 -0.292 50 50" enable-background="new -0.151 -0.292 50 50"
	 xml:space="preserve">
<defs>
</defs>
<path fill="#E6B706" d="M49.015,25.526l-7.563-9.18V5.722c0-1.917-1.288-3.475-2.873-3.475c-1.558,0-2.836,1.558-2.836,3.475v3.654
	l-5.627-6.858c-2.779-3.361-7.627-3.361-10.409,0.022L0.827,25.526c-1.103,1.354-1.103,3.564,0,4.941
	c1.112,1.331,2.91,1.331,4.041,0l2.094-2.571c-0.046,0.179-0.074,0.337-0.074,0.54v14.708c0,3.474,2.317,6.271,5.144,6.271h8.24
	V33.917h9.287v15.497h8.23c2.837,0,5.135-2.797,5.135-6.271V28.436c0-0.203-0.028-0.361-0.064-0.54l2.104,2.571
	c0.557,0.654,1.297,1.014,2.021,1.014c0.731,0,1.454-0.359,2.029-1.014C50.127,29.09,50.127,26.879,49.015,25.526"/>
</svg>
