<?xml version="1.0" encoding="utf-8"?>
<!-- Generator: Adobe Illustrator 15.0.0, SVG Export Plug-In  -->
<!DOCTYPE svg PUBLIC "-//W3C//DTD SVG 1.1//EN" "http://www.w3.org/Graphics/SVG/1.1/DTD/svg11.dtd" [
	<!ENTITY ns_flows "http://ns.adobe.com/Flows/1.0/">
]>
<svg version="1.1"
	 xmlns="http://www.w3.org/2000/svg" xmlns:xlink="http://www.w3.org/1999/xlink" xmlns:a="http://ns.adobe.com/AdobeSVGViewerExtensions/3.0/"
	 x="0px" y="0px" width="100px" height="100px" viewBox="-0.989 -1.107 100 100" enable-background="new -0.989 -1.107 100 100"
	 xml:space="preserve">
<defs>
</defs>
<path fill="#F1F3EE" d="M98.006,49.002c0,27.061-21.937,49.005-48.996,49.005C21.938,98.007,0,76.063,0,49.002S21.938,0,49.01,0
	C76.069,0,98.006,21.941,98.006,49.002"/>
<path fill="#313332" d="M56.026,70.811H44.579c-0.584,0-1.058,0.372-1.058,0.827v2.194c0,0.326,0.239,0.619,0.617,0.753l5.716,2.042
	c0.137,0.049,0.293,0.077,0.439,0.077c0.159,0,0.312-0.031,0.457-0.086l5.729-2.109c0.373-0.141,0.61-0.433,0.61-0.75v-2.115
	C57.09,71.183,56.614,70.811,56.026,70.811"/>
<path fill="#E6B706" d="M66.555,45.406c0-9.197-7.477-16.669-16.671-16.669c-9.192,0-16.671,7.472-16.671,16.669
	c0,3.73,1.209,7.264,3.49,10.203c0.006,0.013,0.015,0.03,0.035,0.037c4.76,6.615,3.576,9.761,3.576,9.767
	c-0.034,0.067-0.055,0.428-0.055,0.428s0.105,0.789,0.583,1.021c0.144,0.063,0.3,0.101,0.454,0.101
	c0.373,0,14.556,0.231,17.27-0.018c0.036,0,0.066-0.013,0.109-0.013c0.198-0.028,0.323-0.049,0.338-0.082
	c0.259-0.113,0.747-1.009,0.747-1.009s-0.078-0.132-0.194-0.415c-0.016-0.031-1.263-3.237,3.542-9.871
	C65.36,52.627,66.555,49.112,66.555,45.406"/>
<path fill="#313332" d="M59.76,69.345v-0.902V65.84H40.259v2.603v0.902c0,1.436,1.166,2.606,2.604,2.606H57.16
	C58.59,71.952,59.76,70.781,59.76,69.345"/>
<path fill="#E6B706" d="M27.02,47.636h-8.763c-0.63,0-1.142-0.512-1.142-1.142c0-0.634,0.512-1.146,1.142-1.146h8.763
	c0.631,0,1.143,0.511,1.143,1.146C28.163,47.124,27.651,47.636,27.02,47.636"/>
<path fill="#E6B706" d="M25.286,65.37c-0.36,0-0.715-0.167-0.937-0.48c-0.365-0.516-0.241-1.226,0.277-1.598l7.162-5.039
	c0.512-0.366,1.229-0.241,1.594,0.274c0.363,0.518,0.238,1.228-0.277,1.594l-7.16,5.042C25.741,65.306,25.509,65.37,25.286,65.37"/>
<path fill="#E6B706" d="M30.757,33.853c-0.262,0-0.527-0.091-0.744-0.275l-6.655-5.697c-0.479-0.409-0.536-1.133-0.125-1.615
	c0.409-0.477,1.131-0.536,1.612-0.123l6.655,5.696c0.484,0.413,0.538,1.132,0.125,1.614C31.4,33.719,31.082,33.853,30.757,33.853"/>
<path fill="#E6B706" d="M43.518,24.982c-0.521,0-0.992-0.36-1.114-0.894l-1.936-8.546c-0.137-0.611,0.247-1.227,0.864-1.364
	c0.613-0.146,1.228,0.244,1.368,0.858l1.936,8.551c0.137,0.614-0.247,1.227-0.861,1.364C43.688,24.973,43.602,24.982,43.518,24.982"
	/>
<path fill="#E6B706" d="M59.025,24.982c-0.082,0-0.174-0.009-0.257-0.031c-0.612-0.137-1.002-0.75-0.862-1.364l1.938-8.551
	c0.142-0.614,0.748-1.004,1.37-0.858c0.612,0.138,0.996,0.753,0.861,1.367l-1.938,8.543C60.017,24.622,59.547,24.982,59.025,24.982"
	/>
<path fill="#E6B706" d="M80.279,47.636h-8.758c-0.634,0-1.144-0.512-1.144-1.142c0-0.634,0.51-1.146,1.144-1.146h8.758
	c0.631,0,1.143,0.511,1.143,1.146C81.422,47.124,80.91,47.636,80.279,47.636"/>
<path fill="#E6B706" d="M75.271,64.644c-0.229,0-0.457-0.066-0.655-0.207l-7.161-5.048c-0.518-0.363-0.643-1.073-0.277-1.591
	c0.363-0.519,1.076-0.641,1.595-0.278l7.162,5.046c0.513,0.365,0.64,1.076,0.271,1.595C75.983,64.474,75.629,64.644,75.271,64.644"
	/>
<path fill="#E6B706" d="M69.802,33.853c-0.323,0-0.644-0.134-0.866-0.399c-0.417-0.482-0.359-1.202,0.119-1.614l6.655-5.696
	c0.478-0.413,1.2-0.354,1.612,0.123c0.412,0.482,0.352,1.206-0.126,1.615l-6.651,5.697C70.33,33.762,70.063,33.853,69.802,33.853"/>
<path fill="#F1F3EE" d="M50.258,35.104c0-0.596-0.484-1.087-1.086-1.087c-6.273,0-11.39,5.108-11.39,11.389
	c0,0.599,0.488,1.085,1.092,1.085c0.6,0,1.087-0.486,1.087-1.085c0-5.082,4.132-9.216,9.211-9.216
	C49.773,36.19,50.258,35.707,50.258,35.104"/>
</svg>
