<?xml version="1.0" encoding="utf-8"?>
<!-- Generator: Adobe Illustrator 15.0.0, SVG Export Plug-In  -->
<!DOCTYPE svg PUBLIC "-//W3C//DTD SVG 1.1//EN" "http://www.w3.org/Graphics/SVG/1.1/DTD/svg11.dtd" [
	<!ENTITY ns_flows "http://ns.adobe.com/Flows/1.0/">
]>
<svg version="1.1"
	 xmlns="http://www.w3.org/2000/svg" xmlns:xlink="http://www.w3.org/1999/xlink" xmlns:a="http://ns.adobe.com/AdobeSVGViewerExtensions/3.0/"
	 x="0px" y="0px" width="100px" height="100px" viewBox="-0.921 -0.937 100 100" enable-background="new -0.921 -0.937 100 100"
	 xml:space="preserve">
<defs>
</defs>
<path fill="#F1F3EE" d="M98.175,49.086c0,27.109-21.976,49.091-49.083,49.091C21.98,98.178,0,76.195,0,49.086
	C0,21.979,21.98,0,49.092,0C76.2,0,98.175,21.979,98.175,49.086"/>
<path fill="#E6B706" d="M37.053,61.239c1.246,0.28,2.544,0.507,3.878,0.685c-0.403-1.167-0.684-2.37-0.855-3.586
	c-1.563-0.266-3.068-0.61-4.489-1.038c-0.91-3.029-1.484-6.419-1.631-9.99h7.876c0.571-1.189,1.279-2.331,2.116-3.396h-9.998
	c0.135-3.622,0.712-7.062,1.637-10.123c3.06-0.926,6.502-1.501,10.121-1.636v9.794c1.044-1.009,2.186-1.882,3.398-2.624v-7.164
	c3.57,0.146,6.963,0.719,9.99,1.629c0.269,0.891,0.497,1.823,0.705,2.774c1.222,0.048,2.422,0.204,3.594,0.469
	c-0.109-0.597-0.226-1.198-0.359-1.776c2.602,1.173,9.414,5.39,12.52,10.694c0-0.137,0.01-0.269,0.01-0.406
	c0-15.527-12.634-28.155-28.156-28.155h-0.04h-0.025c-0.036,0-0.073,0.003-0.106,0.003c-14.973,0.087-27.211,11.918-27.952,26.727
	c-0.063,0.468-0.101,0.943-0.101,1.426c0,0.478,0.039,0.953,0.101,1.426c0.743,14.804,12.979,26.631,27.952,26.723
	c0.033,0,0.07,0.003,0.106,0.003h0.025h0.04c1.413,0,2.806-0.106,4.165-0.312C49.421,72.477,40.327,69.747,37.053,61.239
	 M70.007,35.452c-2.196-1.776-4.975-3.268-8.176-4.397c-1.117-3.177-2.595-5.932-4.349-8.116
	C63.042,25.42,67.518,29.896,70.007,35.452 M49.106,21.014c3.378,0.863,6.404,4.141,8.523,8.838
	c-2.656-0.606-5.518-0.985-8.523-1.092V21.014z M45.708,20.986v7.771c-3.047,0.101-5.958,0.478-8.655,1.095
	C39.2,25.096,42.275,21.79,45.708,20.986 M37.133,23.028c-1.723,2.173-3.182,4.894-4.282,8.027c-3.103,1.092-5.808,2.53-7.97,4.234
	C27.351,29.876,31.721,25.507,37.133,23.028 M31.648,35.258c-0.617,2.695-0.996,5.604-1.093,8.656H22.78
	C23.586,40.48,26.89,37.403,31.648,35.258 M30.555,47.31c0.11,3.004,0.486,5.868,1.093,8.524c-4.697-2.125-7.977-5.15-8.838-8.524
	H30.555z M24.881,55.798c2.163,1.697,4.868,3.145,7.97,4.235c1.1,3.127,2.559,5.854,4.282,8.027
	C31.721,65.582,27.354,61.212,24.881,55.798"/>
<path fill="#313332" d="M81.368,72.189c1.609,1.619,1.609,4.225,0,5.833c-1.613,1.612-4.221,1.612-5.83,0L63.884,66.369
	c-1.609-1.611,4.22-7.438,5.83-5.832L81.368,72.189z"/>
<path fill="#313332" d="M59.059,70.779c-4.024,0-7.809-1.563-10.655-4.41c-5.873-5.868-5.873-15.436,0-21.306
	c2.846-2.849,6.633-4.416,10.655-4.416c4.025,0,7.809,1.566,10.651,4.416c5.876,5.87,5.876,15.431,0,21.306
	C66.868,69.216,63.084,70.779,59.059,70.779 M59.059,47.672c-2.149,0-4.168,0.834-5.689,2.354c-3.133,3.133-3.133,8.24,0,11.378
	c1.521,1.515,3.54,2.357,5.689,2.357c2.146,0,4.169-0.843,5.689-2.357c3.136-3.139,3.136-8.245,0-11.378
	C63.231,48.506,61.206,47.672,59.059,47.672"/>
</svg>
