<?xml version="1.0" encoding="utf-8"?>
<!-- Generator: Adobe Illustrator 15.0.0, SVG Export Plug-In  -->
<!DOCTYPE svg PUBLIC "-//W3C//DTD SVG 1.1//EN" "http://www.w3.org/Graphics/SVG/1.1/DTD/svg11.dtd" [
	<!ENTITY ns_flows "http://ns.adobe.com/Flows/1.0/">
]>
<svg version="1.1"
	 xmlns="http://www.w3.org/2000/svg" xmlns:xlink="http://www.w3.org/1999/xlink" xmlns:a="http://ns.adobe.com/AdobeSVGViewerExtensions/3.0/"
	 x="0px" y="0px" width="100px" height="100px" viewBox="-0.74 -0.578 100 100" enable-background="new -0.74 -0.578 100 100"
	 xml:space="preserve">
<defs>
</defs>
<path fill="#13642C" d="M49.546,0C22.182,0,0,22.247,0,49.687c0,27.429,22.182,49.671,49.546,49.671
	c27.357,0,49.546-22.242,49.546-49.671C99.092,22.247,76.904,0,49.546,0 M49.546,86.147c-20.38,0-36.896-16.324-36.896-36.461
	c0-20.142,16.516-36.472,36.896-36.472c20.374,0,36.897,16.33,36.897,36.472C86.444,69.823,69.92,86.147,49.546,86.147"/>
<path fill="#FFCC33" d="M34.329,36.669c0-8.362,6.841-15.138,15.284-15.138c8.44,0,15.287,6.776,15.287,15.138
	c0,8.362-6.847,15.143-15.287,15.143C41.17,51.813,34.329,45.032,34.329,36.669"/>
<path fill="none" stroke="#126B36" stroke-width="0.25" stroke-miterlimit="10" d="M34.329,36.669
	c0-8.362,6.841-15.138,15.284-15.138c8.44,0,15.287,6.776,15.287,15.138c0,8.362-6.847,15.143-15.287,15.143
	C41.17,51.813,34.329,45.032,34.329,36.669z"/>
<path fill="none" stroke="#0A6B37" stroke-width="0.048" stroke-miterlimit="10" d="M34.239,36.411
	c0-8.365,6.847-15.143,15.288-15.143c8.439,0,15.287,6.778,15.287,15.143c0,8.362-6.848,15.137-15.287,15.137
	C41.085,51.548,34.239,44.773,34.239,36.411z"/>
<polygon fill="#006633" points="64.028,40.298 56.489,23.861 49.498,39.516 42.402,23.892 35.195,40.298 41.407,40.298 
	41.407,48.956 43.46,48.956 43.46,40.298 55.515,40.298 55.509,48.956 57.566,48.956 57.566,40.298 "/>
<path fill="#13642C" d="M32.463,55.884v2.943h-0.248c-0.195-0.773-0.548-1.354-1.06-1.765c-0.516-0.406-1.101-0.619-1.752-0.619
	c-0.54,0-1.044,0.155-1.502,0.458c-0.447,0.31-0.782,0.705-0.991,1.201c-0.272,0.624-0.411,1.329-0.411,2.102
	c0,0.753,0.1,1.446,0.299,2.07c0.198,0.624,0.503,1.098,0.928,1.414c0.418,0.325,0.964,0.48,1.633,0.48
	c0.548,0,1.049-0.119,1.507-0.348c0.46-0.235,0.939-0.64,1.455-1.211v0.736c-0.495,0.496-1.007,0.854-1.538,1.077
	c-0.529,0.225-1.148,0.337-1.855,0.337c-0.932,0-1.759-0.188-2.482-0.55c-0.727-0.357-1.281-0.88-1.676-1.563
	c-0.391-0.678-0.59-1.403-0.59-2.172c0-0.812,0.223-1.579,0.654-2.305c0.439-0.726,1.027-1.291,1.765-1.687
	c0.738-0.398,1.528-0.602,2.364-0.602c0.613,0,1.265,0.133,1.941,0.389c0.399,0.149,0.648,0.224,0.753,0.224
	c0.136,0,0.259-0.042,0.359-0.149c0.105-0.096,0.163-0.25,0.199-0.463H32.463z"/>
<path fill="#13642C" d="M34.834,62.631c0.299,0,0.552,0.107,0.763,0.315c0.207,0.204,0.312,0.447,0.312,0.737
	c0,0.293-0.105,0.538-0.312,0.729c-0.211,0.202-0.464,0.311-0.763,0.311c-0.292,0-0.554-0.108-0.759-0.311
	c-0.207-0.191-0.306-0.437-0.306-0.729c0-0.29,0.099-0.533,0.306-0.737C34.281,62.738,34.543,62.631,34.834,62.631"/>
<path fill="#13642C" d="M44.81,61.586l-0.332,2.977h-7.752v-0.234h0.292c0.248,0,0.453-0.031,0.606-0.128
	c0.117-0.064,0.199-0.16,0.263-0.3c0.048-0.1,0.063-0.362,0.063-0.788V57.53c0-0.431-0.015-0.702-0.063-0.815
	c-0.046-0.111-0.146-0.202-0.29-0.282c-0.142-0.086-0.337-0.127-0.579-0.127h-0.292v-0.225h4.654v0.225h-0.375
	c-0.253,0-0.458,0.052-0.612,0.138c-0.119,0.053-0.199,0.149-0.266,0.293c-0.05,0.102-0.071,0.374-0.071,0.794v5.411
	c0,0.437,0.021,0.704,0.074,0.821c0.052,0.116,0.158,0.209,0.305,0.267c0.105,0.042,0.364,0.053,0.78,0.053h0.723
	c0.468,0,0.849-0.073,1.163-0.223c0.311-0.166,0.575-0.417,0.796-0.758c0.231-0.342,0.448-0.844,0.647-1.516H44.81z"/>
<path fill="#13642C" d="M46.926,62.631c0.299,0,0.557,0.107,0.763,0.315c0.207,0.204,0.312,0.447,0.312,0.737
	c0,0.293-0.105,0.538-0.312,0.729c-0.211,0.202-0.464,0.311-0.763,0.311c-0.299,0-0.549-0.108-0.764-0.311
	c-0.197-0.191-0.302-0.437-0.302-0.729c0-0.29,0.105-0.533,0.302-0.737C46.377,62.738,46.627,62.631,46.926,62.631"/>
<path fill="#13642C" d="M54.062,62.142h-3.088l-0.362,0.832c-0.122,0.276-0.184,0.502-0.184,0.684c0,0.232,0.1,0.414,0.293,0.522
	c0.123,0.068,0.408,0.121,0.86,0.154v0.229h-2.904v-0.229c0.316-0.043,0.569-0.165,0.774-0.379c0.2-0.203,0.453-0.641,0.744-1.279
	l3.128-6.771h0.12l3.146,6.962c0.298,0.651,0.545,1.067,0.74,1.238c0.149,0.133,0.346,0.208,0.619,0.229v0.229h-4.225v-0.229h0.178
	c0.338,0,0.575-0.043,0.711-0.144c0.096-0.065,0.145-0.156,0.145-0.277c0-0.081-0.018-0.161-0.039-0.235
	c-0.01-0.044-0.072-0.191-0.192-0.476L54.062,62.142z M53.842,61.683l-1.298-2.924l-1.342,2.924H53.842z"/>
<path fill="#13642C" d="M59.746,62.631c0.301,0,0.562,0.107,0.765,0.315c0.205,0.204,0.315,0.447,0.315,0.737
	c0,0.293-0.11,0.538-0.315,0.729c-0.214,0.202-0.464,0.311-0.765,0.311c-0.303,0-0.55-0.108-0.755-0.311
	c-0.206-0.191-0.313-0.437-0.313-0.729c0-0.29,0.106-0.533,0.313-0.737C59.196,62.738,59.443,62.631,59.746,62.631"/>
<path fill="#13642C" d="M64.954,60.722v2.347c0,0.47,0.027,0.759,0.086,0.876c0.056,0.116,0.157,0.213,0.314,0.277
	c0.15,0.079,0.409,0.112,0.819,0.112v0.229H61.73v-0.229c0.404,0,0.68-0.037,0.819-0.112c0.141-0.064,0.247-0.166,0.308-0.277
	c0.054-0.117,0.08-0.406,0.08-0.876v-5.504c0-0.448-0.026-0.748-0.08-0.865c-0.061-0.116-0.167-0.214-0.319-0.277
	c-0.134-0.08-0.409-0.112-0.808-0.112v-0.229h3.807c1.251,0,2.152,0.219,2.696,0.65c0.551,0.426,0.819,0.971,0.819,1.627
	c0,0.55-0.179,1.02-0.527,1.408c-0.352,0.396-0.836,0.668-1.457,0.805C66.658,60.674,65.946,60.722,64.954,60.722 M64.954,56.566
	v3.665c0.142,0.011,0.249,0.016,0.323,0.016c0.519,0,0.928-0.155,1.208-0.453c0.286-0.304,0.422-0.774,0.422-1.408
	c0-0.63-0.136-1.089-0.422-1.383c-0.28-0.294-0.699-0.437-1.267-0.437H64.954z"/>
<path fill="#13642C" d="M72.731,58.534c0.527,0,1.014,0.128,1.465,0.401c0.453,0.261,0.794,0.634,1.023,1.114
	c0.233,0.484,0.357,1.018,0.357,1.596c0,0.827-0.215,1.521-0.651,2.086c-0.535,0.671-1.246,1.013-2.175,1.013
	c-0.904,0-1.605-0.31-2.091-0.928c-0.49-0.619-0.733-1.333-0.733-2.144c0-0.845,0.247-1.574,0.755-2.199
	C71.177,58.854,71.868,58.534,72.731,58.534 M72.762,58.983c-0.226,0-0.41,0.085-0.566,0.239c-0.155,0.161-0.259,0.479-0.307,0.949
	c-0.055,0.476-0.075,1.138-0.075,1.975c0,0.447,0.032,0.87,0.086,1.254c0.054,0.298,0.15,0.523,0.302,0.682
	c0.162,0.146,0.335,0.225,0.529,0.225c0.192,0,0.359-0.054,0.484-0.154c0.167-0.144,0.28-0.342,0.339-0.599
	c0.081-0.388,0.125-1.194,0.125-2.404c0-0.705-0.044-1.196-0.119-1.463c-0.086-0.255-0.205-0.453-0.366-0.575
	C73.086,59.024,72.941,58.983,72.762,58.983"/>
<path fill="#13642C" d="M77.691,62.631c0.301,0,0.556,0.107,0.765,0.315c0.205,0.204,0.309,0.447,0.309,0.737
	c0,0.293-0.104,0.538-0.313,0.729c-0.205,0.202-0.46,0.311-0.761,0.311c-0.297,0-0.55-0.108-0.756-0.311
	c-0.204-0.191-0.312-0.437-0.312-0.729c0-0.29,0.107-0.533,0.312-0.737C77.141,62.738,77.394,62.631,77.691,62.631"/>
<path fill="#006633" d="M36.236,74.026l-0.913,1.553l-0.13-0.069c0.136-0.469,0.136-0.885,0.004-1.254
	c-0.136-0.367-0.379-0.65-0.717-0.836c-0.288-0.171-0.584-0.235-0.917-0.215c-0.326,0.021-0.625,0.134-0.89,0.331
	c-0.337,0.245-0.617,0.576-0.86,0.981c-0.24,0.406-0.405,0.79-0.493,1.185c-0.094,0.384-0.077,0.727,0.046,1.024
	c0.11,0.288,0.347,0.533,0.696,0.736c0.28,0.164,0.573,0.257,0.881,0.268c0.309,0.021,0.685-0.055,1.125-0.204l-0.232,0.386
	c-0.401,0.116-0.784,0.153-1.122,0.105c-0.347-0.032-0.699-0.16-1.064-0.373c-0.481-0.278-0.849-0.625-1.117-1.025
	c-0.259-0.415-0.385-0.853-0.374-1.334c0.006-0.47,0.126-0.906,0.364-1.317c0.255-0.421,0.61-0.763,1.062-1.009
	c0.439-0.255,0.928-0.383,1.428-0.367c0.508,0.011,0.978,0.145,1.409,0.39c0.314,0.182,0.613,0.448,0.883,0.783
	c0.16,0.198,0.265,0.311,0.32,0.348c0.071,0.043,0.149,0.043,0.232,0.032c0.082-0.021,0.165-0.091,0.249-0.188L36.236,74.026z"/>
<path fill="#006633" d="M37.721,77.58l-0.516,1.521c-0.081,0.251-0.121,0.41-0.115,0.485c0.007,0.069,0.046,0.14,0.109,0.219
	c0.069,0.069,0.173,0.134,0.305,0.176l0.17,0.054l-0.048,0.139l-2.59-0.865l0.044-0.127l0.165,0.053
	c0.146,0.055,0.272,0.064,0.372,0.044c0.075-0.011,0.142-0.054,0.201-0.135c0.052-0.042,0.118-0.19,0.2-0.437l1.091-3.233
	c0.08-0.245,0.121-0.411,0.115-0.485c-0.005-0.063-0.045-0.138-0.105-0.214c-0.072-0.074-0.172-0.133-0.309-0.18l-0.165-0.055
	l0.042-0.133l2.593,0.858l-0.048,0.129l-0.159-0.055c-0.146-0.042-0.272-0.059-0.378-0.037c-0.069,0.01-0.147,0.06-0.201,0.124
	c-0.052,0.053-0.117,0.201-0.199,0.447l-0.47,1.387l1.754,0.576l0.464-1.388c0.09-0.25,0.126-0.415,0.123-0.485
	c-0.011-0.079-0.044-0.145-0.111-0.213c-0.065-0.079-0.165-0.133-0.311-0.188l-0.159-0.048l0.046-0.133l2.588,0.849l-0.042,0.139
	l-0.161-0.06c-0.15-0.042-0.276-0.058-0.376-0.031c-0.078,0.011-0.144,0.053-0.21,0.123c-0.042,0.047-0.11,0.197-0.192,0.442
	l-1.089,3.228c-0.083,0.251-0.126,0.41-0.121,0.48c0.011,0.08,0.042,0.149,0.111,0.225c0.073,0.078,0.169,0.133,0.309,0.182
	l0.159,0.053l-0.042,0.134l-2.586-0.858l0.046-0.135l0.153,0.054c0.148,0.048,0.274,0.059,0.379,0.043
	c0.079-0.017,0.138-0.054,0.205-0.129c0.05-0.048,0.112-0.191,0.196-0.438l0.512-1.525L37.721,77.58z"/>
<path fill="#006633" d="M44.633,81.624l-0.021,0.14l-2.701-0.428l0.029-0.139l0.17,0.032c0.142,0.021,0.268,0.016,0.368-0.021
	c0.078-0.033,0.138-0.074,0.184-0.155c0.038-0.059,0.084-0.219,0.121-0.475l0.537-3.36c0.044-0.262,0.054-0.428,0.038-0.491
	c-0.011-0.074-0.067-0.139-0.138-0.203c-0.079-0.064-0.194-0.105-0.332-0.127l-0.178-0.032l0.027-0.134l2.697,0.422l-0.021,0.138
	l-0.173-0.026c-0.149-0.021-0.275-0.011-0.375,0.021c-0.073,0.025-0.126,0.08-0.182,0.16c-0.039,0.053-0.077,0.214-0.123,0.471
	l-0.539,3.36c-0.046,0.261-0.052,0.421-0.035,0.496c0.019,0.073,0.067,0.138,0.146,0.198c0.075,0.063,0.186,0.111,0.335,0.132
	L44.633,81.624z"/>
<path fill="#006633" d="M50.797,80.173l-0.205,1.819l-4.639-0.031v-0.149h0.171c0.151,0.005,0.278-0.022,0.366-0.07
	c0.071-0.031,0.123-0.096,0.159-0.182c0.023-0.059,0.038-0.224,0.044-0.479l0.025-3.409c0-0.261-0.013-0.432-0.046-0.491
	c-0.023-0.068-0.084-0.123-0.165-0.182c-0.084-0.047-0.199-0.068-0.349-0.068h-0.176V76.78l2.787,0.021v0.145h-0.226
	c-0.154-0.005-0.276,0.021-0.371,0.074c-0.065,0.037-0.121,0.092-0.159,0.188c-0.021,0.053-0.04,0.22-0.046,0.469l-0.016,3.298
	c-0.005,0.271,0.01,0.437,0.04,0.517c0.033,0.064,0.092,0.123,0.18,0.165c0.062,0.011,0.217,0.032,0.464,0.032h0.438
	c0.274,0,0.506-0.042,0.69-0.144c0.193-0.09,0.347-0.24,0.485-0.453c0.138-0.209,0.265-0.513,0.393-0.918H50.797z"/>
<path fill="#006633" d="M56.618,79.288l0.119,1.823l-4.576,0.773l-0.021-0.133l0.171-0.036c0.148-0.028,0.266-0.065,0.35-0.134
	c0.055-0.054,0.096-0.117,0.121-0.209c0.016-0.069,0-0.229-0.046-0.485l-0.575-3.355c-0.042-0.256-0.089-0.417-0.126-0.479
	c-0.037-0.061-0.109-0.112-0.2-0.145c-0.092-0.032-0.206-0.037-0.358-0.011l-0.165,0.027l-0.026-0.145l2.742-0.46l0.029,0.139
	l-0.226,0.043c-0.152,0.021-0.267,0.064-0.347,0.134c-0.064,0.048-0.101,0.123-0.129,0.208c-0.018,0.064,0,0.229,0.044,0.485
	l0.563,3.244c0.043,0.261,0.084,0.427,0.127,0.496c0.044,0.064,0.114,0.105,0.204,0.128c0.069,0.017,0.228,0,0.465-0.043
	l0.438-0.074c0.268-0.048,0.49-0.133,0.653-0.257c0.168-0.127,0.3-0.304,0.4-0.533c0.094-0.229,0.168-0.555,0.219-0.972
	L56.618,79.288z"/>
<path fill="#006633" d="M60.759,78.337l-1.748,0.609l-0.042,0.538c-0.012,0.187,0,0.325,0.042,0.432
	c0.044,0.14,0.142,0.22,0.271,0.246c0.075,0.011,0.247-0.011,0.518-0.085l0.044,0.134l-1.641,0.571l-0.048-0.14
	c0.173-0.08,0.286-0.208,0.362-0.362c0.069-0.161,0.128-0.46,0.161-0.887l0.393-4.508l0.07-0.021l3.192,3.387
	c0.303,0.326,0.518,0.519,0.663,0.576c0.113,0.053,0.237,0.053,0.398,0.005l0.045,0.14L61.057,79.8l-0.051-0.14l0.098-0.031
	c0.194-0.064,0.324-0.145,0.379-0.218c0.041-0.06,0.047-0.123,0.025-0.192c-0.025-0.049-0.047-0.082-0.07-0.123
	c-0.01-0.027-0.086-0.103-0.205-0.236L60.759,78.337z M60.534,78.113l-1.323-1.424l-0.167,1.937L60.534,78.113z"/>
<path fill="#006633" d="M65.236,75.456l0.69,1.282c0.128,0.239,0.226,0.394,0.294,0.441c0.06,0.049,0.146,0.069,0.243,0.069
	c0.099-0.005,0.248-0.059,0.459-0.171l0.07,0.123l-2.367,1.244l-0.07-0.13c0.216-0.105,0.351-0.207,0.41-0.287
	c0.053-0.074,0.08-0.155,0.074-0.235c0-0.073-0.074-0.244-0.199-0.491l-1.585-2.965c-0.134-0.256-0.231-0.4-0.292-0.448
	c-0.068-0.043-0.149-0.075-0.241-0.075c-0.098,0.005-0.259,0.065-0.463,0.176l-0.066-0.121l2.147-1.121
	c0.554-0.299,0.985-0.471,1.282-0.534c0.304-0.059,0.588-0.026,0.856,0.097c0.276,0.117,0.487,0.32,0.637,0.592
	c0.179,0.337,0.201,0.684,0.077,1.03c-0.081,0.224-0.249,0.438-0.491,0.662l1.942,0.965c0.247,0.123,0.42,0.197,0.506,0.213
	c0.124,0.021,0.259,0.006,0.389-0.059l0.063,0.128l-1.453,0.758l-2.606-1.302L65.236,75.456z M64.049,73.205l1.062,2.007
	l0.193-0.102c0.318-0.166,0.544-0.315,0.669-0.448c0.125-0.15,0.19-0.314,0.2-0.507c0.017-0.198-0.055-0.416-0.179-0.656
	c-0.183-0.353-0.404-0.561-0.657-0.646c-0.254-0.087-0.566-0.027-0.929,0.159L64.049,73.205z"/>
<path fill="#FFFFFF" d="M3.529,46.241l1.575,0.055l-0.005,0.136c-0.416,0.078-0.736,0.246-0.968,0.502
	c-0.228,0.258-0.348,0.557-0.359,0.891c-0.011,0.281,0.062,0.542,0.216,0.781c0.148,0.241,0.359,0.422,0.618,0.536
	c0.332,0.153,0.703,0.241,1.116,0.25c0.41,0.017,0.779-0.021,1.116-0.109c0.337-0.093,0.596-0.24,0.774-0.449
	C7.786,48.623,7.886,48.351,7.902,48c0.006-0.279-0.043-0.542-0.159-0.781c-0.116-0.24-0.326-0.504-0.62-0.766l0.394,0.01
	c0.253,0.264,0.437,0.531,0.545,0.804c0.105,0.284,0.156,0.608,0.14,0.968c-0.015,0.479-0.126,0.902-0.336,1.267
	c-0.205,0.36-0.5,0.641-0.868,0.83c-0.369,0.188-0.76,0.274-1.17,0.257c-0.437-0.011-0.838-0.143-1.221-0.376
	c-0.381-0.24-0.667-0.558-0.866-0.944c-0.205-0.389-0.294-0.797-0.284-1.225c0.019-0.317,0.1-0.651,0.251-0.995
	c0.086-0.202,0.132-0.333,0.137-0.381c0.006-0.073-0.021-0.132-0.072-0.193c-0.048-0.048-0.132-0.087-0.248-0.109L3.529,46.241z"/>
<path fill="#FFFFFF" d="M4.009,42.983c0.089-0.71,0.385-1.251,0.901-1.622c0.512-0.376,1.102-0.516,1.765-0.406
	c0.569,0.089,1.038,0.329,1.421,0.729c0.507,0.523,0.695,1.184,0.568,1.982c-0.129,0.797-0.499,1.371-1.11,1.72
	c-0.485,0.286-1.028,0.379-1.618,0.286c-0.668-0.104-1.186-0.417-1.563-0.934C4.003,44.223,3.883,43.64,4.009,42.983 M4.23,42.983
	c-0.068,0.405,0.094,0.744,0.479,1.021c0.321,0.229,0.796,0.39,1.442,0.486c0.761,0.12,1.352,0.078,1.761-0.136
	c0.281-0.142,0.453-0.382,0.502-0.715c0.041-0.229,0.011-0.422-0.075-0.59c-0.11-0.213-0.311-0.405-0.604-0.558
	c-0.292-0.155-0.69-0.267-1.187-0.343c-0.596-0.094-1.043-0.109-1.359-0.046c-0.308,0.067-0.539,0.171-0.69,0.323
	C4.357,42.575,4.262,42.759,4.23,42.983"/>
<path fill="#FFFFFF" d="M5.255,37.419c0.177-0.694,0.541-1.198,1.094-1.502c0.555-0.306,1.164-0.366,1.803-0.182
	c0.552,0.152,0.995,0.455,1.321,0.902c0.437,0.58,0.534,1.256,0.313,2.033c-0.223,0.776-0.665,1.305-1.323,1.574
	c-0.521,0.219-1.059,0.246-1.639,0.075c-0.647-0.178-1.122-0.558-1.427-1.118C5.09,38.649,5.044,38.055,5.255,37.419 M5.47,37.44
	c-0.111,0.396,0,0.755,0.348,1.078c0.286,0.262,0.744,0.48,1.37,0.659c0.738,0.213,1.33,0.243,1.761,0.083
	c0.304-0.11,0.504-0.329,0.59-0.65c0.073-0.213,0.067-0.414,0-0.589c-0.076-0.229-0.259-0.438-0.523-0.628
	c-0.278-0.191-0.652-0.357-1.133-0.493c-0.579-0.162-1.026-0.234-1.348-0.209c-0.315,0.025-0.557,0.101-0.723,0.234
	C5.654,37.053,5.538,37.227,5.47,37.44"/>
<path fill="#FFFFFF" d="M9.167,33.928l1.159,0.472c0.232,0.09,0.375,0.135,0.454,0.135c0.059-0.004,0.126-0.039,0.193-0.087
	c0.065-0.06,0.138-0.187,0.213-0.366l0.116,0.038l-0.875,2.121l-0.116-0.05c0.076-0.19,0.122-0.329,0.111-0.414
	c-0.012-0.083-0.042-0.155-0.079-0.203c-0.049-0.05-0.189-0.12-0.415-0.214L7.207,34.25c-0.227-0.093-0.375-0.137-0.448-0.131
	c-0.073,0-0.131,0.032-0.199,0.087c-0.064,0.055-0.137,0.174-0.216,0.366l-0.11-0.042l0.746-1.814
	c0.248-0.595,0.537-0.984,0.855-1.153c0.321-0.176,0.647-0.192,0.968-0.067c0.27,0.115,0.469,0.291,0.595,0.541
	C9.52,32.284,9.557,32.57,9.51,32.89C9.477,33.108,9.355,33.453,9.167,33.928 M7.106,33.092l1.813,0.731
	c0.032-0.058,0.06-0.113,0.07-0.147c0.105-0.246,0.11-0.469,0.016-0.667c-0.091-0.195-0.297-0.354-0.606-0.486
	c-0.316-0.125-0.57-0.151-0.775-0.077c-0.197,0.077-0.358,0.245-0.462,0.52L7.106,33.092z"/>
<path fill="#FFFFFF" d="M8.914,29.211l1.628,0.859l0.043-0.078c0.135-0.25,0.152-0.475,0.057-0.672
	c-0.1-0.203-0.299-0.397-0.59-0.589l0.054-0.115l2.097,1.105l-0.059,0.109c-0.237-0.093-0.448-0.144-0.636-0.144
	c-0.186-0.006-0.329,0.035-0.439,0.103c-0.1,0.078-0.199,0.209-0.305,0.396l1.132,0.594c0.221,0.121,0.358,0.18,0.413,0.188
	c0.061,0.005,0.121-0.008,0.177-0.041c0.068-0.031,0.122-0.109,0.188-0.223l0.127-0.235c0.191-0.371,0.264-0.71,0.216-1.027
	c-0.057-0.318-0.231-0.612-0.537-0.902l0.054-0.11l1.184,0.854l-1.844,3.43l-0.105-0.061l0.065-0.13
	c0.067-0.115,0.088-0.219,0.088-0.31c0-0.062-0.021-0.127-0.078-0.192c-0.033-0.042-0.154-0.12-0.354-0.229l-2.639-1.382
	c-0.176-0.098-0.291-0.155-0.342-0.165c-0.076-0.011-0.153-0.011-0.216,0.021c-0.092,0.046-0.175,0.134-0.242,0.264l-0.07,0.13
	L7.87,30.604l1.782-3.326l1.184,0.629l-0.062,0.109c-0.315-0.094-0.568-0.125-0.749-0.094c-0.179,0.038-0.351,0.143-0.51,0.289
	c-0.094,0.093-0.22,0.291-0.385,0.592L8.914,29.211z"/>
<path fill="#FFFFFF" d="M13.171,26.335l1.048,0.711c0.205,0.141,0.337,0.213,0.415,0.223c0.06,0.011,0.138-0.004,0.208-0.042
	c0.079-0.045,0.172-0.155,0.289-0.318l0.105,0.064l-1.31,1.902l-0.098-0.064c0.116-0.176,0.175-0.302,0.181-0.384
	c0.016-0.088,0-0.157-0.033-0.219c-0.033-0.054-0.148-0.152-0.354-0.288l-2.429-1.651c-0.205-0.13-0.342-0.209-0.415-0.219
	c-0.065-0.006-0.138,0.004-0.216,0.044c-0.07,0.044-0.17,0.147-0.281,0.318l-0.105-0.067l1.187-1.725
	c0.311-0.449,0.57-0.76,0.773-0.923c0.205-0.171,0.438-0.258,0.696-0.275c0.258-0.021,0.502,0.051,0.728,0.203
	c0.278,0.191,0.437,0.443,0.488,0.76c0.027,0.204-0.014,0.438-0.11,0.7l1.881-0.033c0.243-0.004,0.402-0.024,0.48-0.045
	c0.105-0.032,0.199-0.104,0.27-0.189l0.105,0.059l-0.806,1.174l-2.529,0.044L13.171,26.335z M11.332,25.096l1.645,1.115l0.105-0.166
	c0.178-0.25,0.283-0.459,0.321-0.611c0.043-0.163,0.021-0.317-0.052-0.469c-0.07-0.16-0.202-0.302-0.401-0.437
	c-0.289-0.192-0.542-0.262-0.773-0.225c-0.227,0.038-0.442,0.203-0.639,0.502L11.332,25.096z"/>
<path fill="#FFFFFF" d="M17.619,21.876l-1.053,1.195l0.21,0.432c0.065,0.142,0.137,0.24,0.209,0.307
	c0.092,0.08,0.197,0.102,0.308,0.064c0.067-0.022,0.188-0.109,0.353-0.277l0.094,0.08l-0.992,1.125l-0.095-0.08
	c0.095-0.144,0.127-0.28,0.116-0.433c-0.017-0.149-0.1-0.4-0.259-0.739l-1.652-3.571l0.046-0.042l3.868,1.205
	c0.37,0.116,0.62,0.167,0.764,0.155c0.1-0.012,0.199-0.066,0.291-0.165l0.1,0.083l-1.444,1.633l-0.1-0.083l0.059-0.063
	c0.116-0.131,0.184-0.241,0.188-0.328c0.006-0.061-0.01-0.109-0.067-0.152c-0.026-0.028-0.06-0.051-0.105-0.066
	c-0.016-0.011-0.097-0.038-0.253-0.088L17.619,21.876z M17.36,21.798l-1.617-0.521l0.711,1.542L17.36,21.798z"/>
<path fill="#FFFFFF" d="M19.743,15.288l0.834,0.89l-0.086,0.075c-0.251-0.152-0.443-0.25-0.593-0.277
	c-0.149-0.033-0.303-0.021-0.464,0.021c-0.086,0.035-0.208,0.115-0.37,0.256l-0.243,0.232l2.381,2.544
	c0.153,0.168,0.265,0.261,0.318,0.282c0.062,0.027,0.134,0.034,0.217,0.011c0.082-0.021,0.176-0.069,0.272-0.157l0.109-0.104
	l0.081,0.093l-1.739,1.601l-0.081-0.088l0.102-0.104c0.101-0.088,0.168-0.174,0.189-0.267c0.021-0.062,0.021-0.13-0.005-0.208
	c-0.016-0.053-0.111-0.162-0.259-0.328l-2.386-2.54l-0.238,0.218c-0.226,0.209-0.342,0.397-0.353,0.585
	c-0.022,0.267,0.067,0.541,0.253,0.813l-0.094,0.087l-0.839-0.896L19.743,15.288z"/>
<path fill="#FFFFFF" d="M24.897,16.853l0.079,0.099l-1.873,1.444l-0.077-0.093l0.123-0.094c0.104-0.083,0.168-0.162,0.209-0.25
	c0.023-0.061,0.027-0.13,0.006-0.208c-0.016-0.053-0.094-0.175-0.232-0.349l-1.838-2.334c-0.146-0.179-0.238-0.288-0.299-0.315
	c-0.05-0.034-0.123-0.04-0.211-0.026c-0.081,0.01-0.174,0.053-0.274,0.13l-0.117,0.092l-0.079-0.096l1.867-1.443l0.077,0.093
	l-0.115,0.094c-0.105,0.08-0.176,0.168-0.21,0.25c-0.027,0.052-0.027,0.13-0.01,0.208c0.01,0.058,0.094,0.172,0.232,0.349
	l1.832,2.337c0.144,0.175,0.244,0.285,0.305,0.312c0.048,0.031,0.126,0.038,0.21,0.027c0.081-0.011,0.175-0.054,0.28-0.131
	L24.897,16.853z"/>
<path fill="#FFFFFF" d="M26.753,10.4l0.067,0.104c-0.123,0.11-0.199,0.261-0.232,0.453c-0.019,0.147,0.005,0.438,0.077,0.88
	l0.552,3.725l-0.094,0.062l-3.251-2.174c-0.391-0.261-0.636-0.411-0.734-0.437c-0.088-0.027-0.216-0.006-0.383,0.072l-0.059-0.104
	l1.829-1.163l0.065,0.102l-0.059,0.04c-0.167,0.104-0.269,0.2-0.305,0.271c-0.018,0.062-0.018,0.115,0.015,0.166
	c0.021,0.037,0.063,0.069,0.1,0.109c0.05,0.038,0.178,0.125,0.391,0.267l2.034,1.367l-0.332-2.154
	c-0.039-0.261-0.071-0.432-0.096-0.521c-0.026-0.074-0.048-0.141-0.08-0.188c-0.041-0.062-0.083-0.093-0.146-0.121
	c-0.054-0.021-0.121-0.027-0.192-0.01c-0.1,0.021-0.221,0.069-0.353,0.157L25.5,11.193L26.753,10.4z"/>
<path fill="#FFFFFF" d="M30.405,12.179l-1.432,0.724l0.035,0.474c0.011,0.158,0.038,0.28,0.084,0.36
	c0.059,0.115,0.147,0.176,0.268,0.187c0.065,0,0.211-0.042,0.432-0.13l0.054,0.108l-1.342,0.678l-0.059-0.109
	c0.132-0.093,0.226-0.213,0.265-0.355c0.045-0.154,0.055-0.411,0.033-0.781l-0.198-3.929l0.054-0.026l3.155,2.544
	c0.297,0.235,0.506,0.379,0.638,0.411c0.1,0.026,0.216,0.011,0.343-0.037l0.062,0.106l-1.959,0.995l-0.058-0.114l0.084-0.038
	c0.153-0.076,0.253-0.16,0.299-0.234c0.026-0.056,0.026-0.104-0.008-0.166c-0.018-0.038-0.044-0.069-0.071-0.101
	c-0.016-0.013-0.088-0.071-0.205-0.176L30.405,12.179z M30.188,12.012l-1.313-1.07l0.091,1.686L30.188,12.012z"/>
<path fill="#FFFFFF" d="M37.882,8.949l0.343,1.553l-3.826,1.256l-0.04-0.114l0.145-0.051c0.127-0.037,0.219-0.099,0.274-0.163
	c0.05-0.051,0.079-0.115,0.084-0.192c0.006-0.058-0.029-0.195-0.1-0.408l-0.939-2.809c-0.077-0.214-0.134-0.349-0.172-0.4
	c-0.042-0.043-0.109-0.075-0.194-0.091c-0.08-0.023-0.186-0.008-0.301,0.033l-0.144,0.042l-0.04-0.109l2.292-0.752l0.037,0.115
	l-0.18,0.059c-0.126,0.04-0.221,0.098-0.284,0.165c-0.048,0.048-0.069,0.109-0.075,0.189c-0.006,0.062,0.021,0.197,0.094,0.411
	l0.909,2.721c0.073,0.213,0.134,0.349,0.178,0.397c0.048,0.057,0.111,0.083,0.199,0.088c0.054,0,0.186-0.032,0.391-0.099
	l0.353-0.114c0.232-0.075,0.411-0.179,0.537-0.31c0.126-0.127,0.217-0.302,0.27-0.509c0.056-0.208,0.073-0.491,0.062-0.862
	L37.882,8.949z"/>
<path fill="#FFFFFF" d="M41.225,5.199l0.276,1.192l-0.117,0.027c-0.136-0.262-0.259-0.438-0.368-0.542
	c-0.117-0.099-0.255-0.168-0.412-0.208c-0.09-0.017-0.245-0.005-0.448,0.04l-0.332,0.074l0.78,3.378
	C40.658,9.39,40.7,9.525,40.74,9.576c0.039,0.048,0.094,0.085,0.176,0.115c0.083,0.027,0.188,0.021,0.314-0.005l0.149-0.035
	l0.021,0.12l-2.313,0.525l-0.027-0.12l0.144-0.033c0.134-0.029,0.23-0.077,0.299-0.144c0.042-0.038,0.083-0.099,0.094-0.179
	C39.613,9.76,39.592,9.624,39.54,9.4l-0.776-3.377L38.45,6.095c-0.305,0.073-0.51,0.181-0.608,0.333
	c-0.155,0.225-0.214,0.496-0.188,0.831l-0.126,0.028L37.255,6.1L41.225,5.199z"/>
<path fill="#FFFFFF" d="M42.507,9.518l-0.011-0.12l0.153-0.019c0.126-0.016,0.226-0.048,0.293-0.091
	c0.06-0.05,0.112-0.109,0.138-0.187c0.012-0.048,0.006-0.187-0.021-0.416L42.728,5.74c-0.021-0.225-0.048-0.366-0.084-0.413
	c-0.032-0.062-0.081-0.104-0.159-0.137c-0.082-0.039-0.188-0.05-0.314-0.034l-0.149,0.019l-0.01-0.123l2.013-0.225
	c0.537-0.058,0.979-0.037,1.327,0.072c0.427,0.136,0.755,0.372,1.006,0.704c0.244,0.339,0.397,0.739,0.444,1.193
	c0.041,0.309,0.02,0.605-0.053,0.885c-0.073,0.278-0.178,0.507-0.32,0.699c-0.144,0.188-0.316,0.349-0.514,0.475
	c-0.205,0.125-0.452,0.241-0.751,0.329c-0.132,0.042-0.347,0.074-0.635,0.109L42.507,9.518z M43.755,5.114l0.391,3.487
	c0.023,0.184,0.046,0.298,0.067,0.331c0.021,0.045,0.054,0.072,0.1,0.087c0.065,0.034,0.153,0.034,0.265,0.023
	c0.368-0.039,0.641-0.191,0.805-0.472c0.226-0.365,0.305-0.906,0.223-1.616C45.542,6.38,45.4,5.932,45.178,5.61
	c-0.174-0.251-0.379-0.409-0.617-0.486C44.397,5.077,44.123,5.069,43.755,5.114"/>
<path fill="#FFFFFF" d="M49.634,7.72l-1.606,0.005L47.84,8.168c-0.06,0.144-0.086,0.264-0.086,0.363
	c0,0.122,0.048,0.216,0.153,0.277c0.062,0.032,0.211,0.059,0.447,0.077v0.126l-1.507,0.006l-0.005-0.121
	c0.165-0.029,0.297-0.093,0.402-0.208c0.105-0.104,0.232-0.328,0.387-0.677l1.596-3.597l0.06-0.005l1.664,3.679
	c0.16,0.349,0.292,0.565,0.392,0.653c0.078,0.072,0.181,0.109,0.32,0.12v0.12L49.472,9V8.872h0.086c0.177,0,0.299-0.021,0.372-0.069
	c0.048-0.037,0.069-0.088,0.069-0.154c0-0.038-0.005-0.08-0.021-0.126c0-0.021-0.033-0.099-0.1-0.245L49.634,7.72z M49.52,7.475
	l-0.69-1.545l-0.684,1.55L49.52,7.475z"/>
<path fill="#FFFFFF" d="M53.359,9.104l0.021-0.12l0.147,0.021c0.129,0.021,0.229,0.016,0.306-0.016
	c0.076-0.035,0.138-0.078,0.177-0.144c0.027-0.044,0.061-0.18,0.093-0.41l0.448-2.923c0.027-0.229,0.037-0.371,0.021-0.437
	c-0.018-0.054-0.053-0.115-0.123-0.164c-0.063-0.062-0.162-0.093-0.289-0.114l-0.15-0.017l0.015-0.12l2.017,0.294
	c0.534,0.083,0.954,0.213,1.257,0.41c0.373,0.234,0.637,0.548,0.788,0.934c0.149,0.39,0.193,0.813,0.128,1.262
	c-0.053,0.312-0.139,0.594-0.284,0.848C57.783,8.656,57.625,8.851,57.437,9c-0.192,0.146-0.389,0.261-0.614,0.333
	c-0.238,0.064-0.501,0.109-0.81,0.125c-0.146,0.006-0.353-0.017-0.651-0.061L53.359,9.104z M55.706,5.165l-0.527,3.467
	c-0.027,0.181-0.037,0.296-0.027,0.342c0.012,0.047,0.041,0.079,0.078,0.106c0.055,0.045,0.133,0.072,0.247,0.088
	c0.371,0.056,0.675-0.027,0.902-0.25c0.321-0.296,0.53-0.792,0.634-1.501c0.08-0.574,0.068-1.043-0.065-1.409
	c-0.102-0.285-0.259-0.499-0.463-0.624C56.326,5.29,56.067,5.212,55.706,5.165"/>
<path fill="#FFFFFF" d="M60.792,6.146l-0.477,1.771l0.093,0.021c0.274,0.071,0.502,0.038,0.675-0.097
	c0.172-0.142,0.318-0.376,0.44-0.705l0.119,0.032L61.04,9.44L60.92,9.408c0.039-0.253,0.039-0.47-0.006-0.651
	c-0.036-0.181-0.112-0.312-0.205-0.393c-0.09-0.083-0.247-0.154-0.452-0.202l-0.324,1.216c-0.068,0.243-0.09,0.389-0.09,0.448
	c0.01,0.061,0.031,0.11,0.08,0.166c0.054,0.042,0.135,0.088,0.265,0.12l0.259,0.066c0.408,0.107,0.766,0.097,1.057-0.024
	c0.303-0.125,0.55-0.365,0.762-0.72l0.122,0.032l-0.565,1.329l-3.792-0.99l0.023-0.12l0.149,0.04
	c0.131,0.038,0.238,0.038,0.324,0.011c0.071-0.011,0.124-0.051,0.172-0.123c0.044-0.042,0.092-0.168,0.146-0.391l0.761-2.853
	c0.053-0.202,0.074-0.328,0.074-0.366c0-0.088-0.021-0.151-0.064-0.208c-0.075-0.083-0.173-0.141-0.319-0.182l-0.144-0.037
	l0.031-0.115l3.679,0.956l-0.351,1.29l-0.125-0.037c0.022-0.328,0-0.581-0.081-0.745c-0.068-0.168-0.21-0.312-0.393-0.427
	c-0.113-0.072-0.335-0.147-0.669-0.234L60.792,6.146z"/>
<path fill="#FFFFFF" d="M66.883,11.353l-1.476-0.628l-0.345,0.324c-0.119,0.109-0.195,0.208-0.232,0.292
	c-0.05,0.115-0.038,0.225,0.033,0.318c0.036,0.056,0.166,0.142,0.376,0.246l-0.059,0.116l-1.37-0.595l0.044-0.116
	c0.149,0.043,0.307,0.038,0.447-0.021c0.146-0.062,0.351-0.214,0.63-0.469l2.93-2.646l0.059,0.024l0.021,4.025
	c0,0.381,0.021,0.635,0.086,0.76c0.038,0.088,0.12,0.163,0.242,0.235l-0.048,0.114l-2.012-0.875l0.049-0.115l0.086,0.04
	c0.163,0.07,0.285,0.096,0.362,0.08c0.06-0.01,0.102-0.047,0.14-0.109c0.01-0.038,0.021-0.078,0.026-0.126
	c0.006-0.016,0.006-0.104,0.006-0.261L66.883,11.353z M66.879,11.086V9.397l-1.257,1.146L66.879,11.086z"/>
<path fill="#FFFFFF" d="M74.229,11.449l-0.798,1.376l-0.108-0.059c0.086-0.448,0.06-0.848-0.092-1.193
	c-0.145-0.339-0.372-0.6-0.679-0.776c-0.292-0.162-0.589-0.224-0.868-0.168c-0.298,0.048-0.565,0.204-0.814,0.448
	c-0.254,0.246-0.469,0.523-0.646,0.83c-0.217,0.371-0.363,0.73-0.438,1.067c-0.074,0.326-0.048,0.621,0.065,0.862
	c0.129,0.245,0.322,0.448,0.598,0.6c0.092,0.05,0.199,0.099,0.308,0.138c0.113,0.038,0.237,0.064,0.362,0.081l0.463-0.808
	c0.091-0.152,0.135-0.256,0.146-0.318c0-0.054-0.022-0.12-0.064-0.195c-0.048-0.072-0.112-0.139-0.217-0.188l-0.096-0.066
	l0.063-0.102l1.909,1.086l-0.064,0.104c-0.15-0.072-0.259-0.109-0.329-0.109c-0.08-0.005-0.151,0.021-0.22,0.072
	c-0.039,0.026-0.099,0.109-0.185,0.25l-0.469,0.813c-0.319-0.032-0.62-0.099-0.932-0.198c-0.304-0.098-0.595-0.229-0.892-0.392
	c-0.373-0.214-0.651-0.443-0.846-0.683c-0.185-0.24-0.329-0.496-0.422-0.771c-0.096-0.267-0.135-0.537-0.123-0.803
	c0.016-0.338,0.123-0.671,0.319-1.006c0.333-0.584,0.829-0.959,1.48-1.13c0.649-0.163,1.291-0.07,1.926,0.291
	c0.183,0.11,0.355,0.223,0.496,0.343c0.076,0.064,0.185,0.185,0.339,0.366c0.146,0.182,0.244,0.277,0.276,0.302
	c0.054,0.031,0.106,0.042,0.184,0.026c0.063-0.01,0.15-0.067,0.253-0.152L74.229,11.449z"/>
<path fill="#FFFFFF" d="M75.053,12.092l1.882,1.381l-0.07,0.099l-0.102-0.063c-0.134-0.104-0.247-0.166-0.324-0.171
	c-0.074-0.016-0.14,0-0.204,0.032c-0.055,0.041-0.162,0.16-0.319,0.368l-1.32,1.763c-0.241,0.322-0.378,0.558-0.41,0.693
	c-0.032,0.142-0.015,0.292,0.056,0.443c0.054,0.152,0.167,0.291,0.345,0.421c0.2,0.142,0.398,0.224,0.593,0.235
	c0.216,0.017,0.41-0.035,0.588-0.131c0.188-0.104,0.426-0.352,0.712-0.734l1.1-1.475c0.123-0.158,0.193-0.288,0.211-0.376
	c0.021-0.099,0.01-0.182-0.022-0.24c-0.055-0.104-0.152-0.202-0.302-0.312l0.081-0.104L78.8,14.85l-0.068,0.099l-0.081-0.054
	c-0.098-0.078-0.199-0.114-0.291-0.134c-0.104-0.004-0.205,0.024-0.291,0.078c-0.065,0.04-0.151,0.136-0.259,0.285l-1.035,1.371
	c-0.314,0.421-0.573,0.709-0.772,0.851c-0.188,0.154-0.464,0.219-0.803,0.219c-0.334-0.005-0.69-0.142-1.068-0.419
	c-0.313-0.237-0.527-0.449-0.636-0.661c-0.15-0.292-0.206-0.553-0.173-0.804c0.032-0.253,0.167-0.526,0.395-0.827l1.326-1.763
	c0.146-0.208,0.242-0.345,0.254-0.416c0.009-0.063,0-0.135-0.033-0.209c-0.033-0.069-0.131-0.162-0.292-0.271L75.053,12.092z"/>
<path fill="#FFFFFF" d="M78.738,19.145l-1.177-1.075l-0.441,0.198c-0.151,0.063-0.255,0.135-0.324,0.199
	c-0.074,0.093-0.107,0.198-0.064,0.307c0.021,0.072,0.106,0.192,0.271,0.36l-0.086,0.093l-1.112-1.016l0.086-0.087
	c0.14,0.087,0.281,0.133,0.431,0.121c0.152-0.011,0.401-0.086,0.75-0.242l3.641-1.543l0.053,0.037l-1.32,3.809
	c-0.125,0.366-0.167,0.612-0.167,0.748c0.012,0.099,0.069,0.197,0.157,0.302l-0.082,0.088l-1.612-1.47l0.081-0.088l0.064,0.058
	c0.131,0.115,0.237,0.181,0.324,0.192c0.06,0.006,0.119-0.011,0.16-0.058c0.023-0.035,0.045-0.066,0.066-0.104
	c0.012-0.019,0.044-0.099,0.098-0.253L78.738,19.145z M78.824,18.888l0.561-1.595L77.81,17.97L78.824,18.888z"/>
<path fill="#FFFFFF" d="M83.202,22.764l-0.981,0.782c-0.185,0.152-0.297,0.27-0.335,0.329c-0.021,0.059-0.031,0.135-0.01,0.219
	c0.01,0.082,0.092,0.202,0.215,0.359L82,24.529l-1.451-1.771l0.096-0.08c0.136,0.163,0.237,0.262,0.314,0.293
	c0.074,0.032,0.148,0.037,0.214,0.027c0.071-0.021,0.193-0.104,0.39-0.256l2.285-1.834c0.189-0.153,0.303-0.262,0.335-0.324
	c0.033-0.066,0.039-0.136,0.021-0.219c-0.021-0.082-0.098-0.202-0.226-0.359l0.097-0.082l1.24,1.525
	c0.408,0.497,0.625,0.934,0.614,1.294c0,0.36-0.141,0.656-0.411,0.875c-0.227,0.178-0.474,0.26-0.759,0.26
	c-0.279-0.015-0.538-0.12-0.803-0.322C83.779,23.426,83.526,23.164,83.202,22.764 M84.926,21.377l-1.52,1.225
	c0.043,0.059,0.074,0.104,0.102,0.135c0.167,0.208,0.362,0.317,0.589,0.329c0.211,0.016,0.452-0.088,0.711-0.296
	c0.259-0.214,0.41-0.419,0.443-0.633c0.021-0.208-0.055-0.427-0.238-0.65L84.926,21.377z"/>
<path fill="#FFFFFF" d="M88.302,25.434c0.42,0.589,0.556,1.19,0.42,1.808c-0.129,0.617-0.484,1.103-1.045,1.466
	c-0.484,0.303-1.004,0.435-1.559,0.392c-0.728-0.066-1.311-0.432-1.753-1.11c-0.441-0.683-0.545-1.354-0.322-2.027
	c0.183-0.523,0.518-0.949,1.023-1.272c0.567-0.359,1.165-0.469,1.791-0.328C87.482,24.505,87.963,24.867,88.302,25.434
	 M88.146,25.581c-0.228-0.349-0.578-0.496-1.039-0.448c-0.396,0.038-0.865,0.235-1.416,0.579c-0.646,0.422-1.055,0.835-1.222,1.262
	c-0.113,0.301-0.081,0.592,0.102,0.874c0.124,0.193,0.281,0.318,0.454,0.388c0.227,0.087,0.506,0.093,0.824,0.018
	c0.33-0.078,0.695-0.253,1.127-0.52c0.496-0.322,0.851-0.605,1.035-0.865c0.189-0.25,0.291-0.485,0.307-0.688
	C88.323,25.971,88.26,25.773,88.146,25.581"/>
<path fill="#FFFFFF" d="M91.731,31.814l-1.1,0.537l-0.054-0.104c0.226-0.192,0.366-0.344,0.443-0.48
	c0.074-0.13,0.112-0.28,0.112-0.448c-0.005-0.093-0.048-0.235-0.146-0.421l-0.151-0.302l-3.138,1.531
	c-0.211,0.099-0.333,0.174-0.378,0.225c-0.038,0.042-0.065,0.114-0.07,0.197c-0.004,0.085,0.017,0.185,0.082,0.3l0.063,0.13
	l-0.112,0.061l-1.041-2.115l0.109-0.053l0.063,0.136c0.055,0.114,0.13,0.197,0.205,0.25c0.054,0.037,0.118,0.055,0.199,0.055
	c0.059-0.004,0.195-0.055,0.4-0.159l3.133-1.524l-0.135-0.296c-0.136-0.266-0.297-0.443-0.464-0.507
	c-0.253-0.088-0.544-0.088-0.868,0.016l-0.049-0.114l1.096-0.541L91.731,31.814z"/>
<path fill="#FFFFFF" d="M89.79,35.813l-0.538-1.497l-0.491-0.024c-0.155-0.011-0.279,0.005-0.371,0.035
	c-0.125,0.043-0.188,0.131-0.216,0.246c-0.011,0.067,0.021,0.214,0.087,0.438l-0.118,0.042l-0.523-1.404l0.118-0.045
	c0.075,0.15,0.188,0.246,0.328,0.307c0.14,0.061,0.398,0.104,0.775,0.125l3.959,0.275l0.021,0.059l-2.934,2.792
	c-0.271,0.267-0.437,0.459-0.484,0.584c-0.045,0.099-0.045,0.208-0.006,0.344l-0.113,0.038l-0.761-2.044l0.113-0.038l0.038,0.083
	c0.06,0.163,0.125,0.272,0.199,0.32c0.05,0.034,0.104,0.04,0.163,0.019c0.043-0.019,0.08-0.04,0.113-0.061
	c0.016-0.011,0.08-0.078,0.198-0.188L89.79,35.813z M89.986,35.616l1.239-1.158l-1.704-0.115L89.986,35.616z"/>
<path fill="#FFFFFF" d="M92.356,40.585c0,0.435-0.053,0.752-0.143,0.956c-0.146,0.291-0.369,0.469-0.681,0.541
	c-0.33,0.088-0.643,0.016-0.922-0.197c-0.346-0.261-0.584-0.699-0.744-1.323l-0.538-2.217l0.122-0.027
	c0.054,0.2,0.104,0.333,0.157,0.393c0.054,0.065,0.119,0.103,0.182,0.114c0.066,0.016,0.223-0.005,0.465-0.059l2.857-0.683
	c0.243-0.062,0.39-0.11,0.442-0.154c0.054-0.042,0.093-0.104,0.108-0.185c0.021-0.088,0.005-0.224-0.043-0.421l0.119-0.031
	l0.518,2.097c0.118,0.496,0.161,0.863,0.118,1.093c-0.038,0.229-0.13,0.427-0.281,0.59c-0.15,0.158-0.323,0.266-0.527,0.317
	c-0.211,0.047-0.422,0.016-0.621-0.093C92.735,41.18,92.541,40.945,92.356,40.585 M91.895,39.449l-1.403,0.339l-0.173,0.037
	c-0.119,0.021-0.193,0.077-0.237,0.146c-0.055,0.078-0.055,0.171-0.033,0.291c0.045,0.163,0.125,0.317,0.237,0.443
	c0.107,0.13,0.25,0.213,0.411,0.256c0.167,0.038,0.334,0.038,0.518-0.006c0.205-0.042,0.377-0.141,0.517-0.271
	c0.141-0.139,0.228-0.291,0.253-0.478C92.011,40.033,91.984,39.776,91.895,39.449 M92.154,39.388
	c0.074,0.306,0.161,0.524,0.268,0.65c0.104,0.125,0.227,0.219,0.378,0.261c0.14,0.051,0.313,0.051,0.508,0
	c0.194-0.042,0.346-0.121,0.453-0.229c0.101-0.104,0.172-0.234,0.204-0.392c0.021-0.155,0-0.395-0.076-0.707L92.154,39.388z"/>
<path fill="#FFFFFF" d="M92.476,46.449l-1.601,0.038l-0.523-3.957l0.112-0.017l0.027,0.15c0.021,0.13,0.053,0.235,0.107,0.298
	c0.038,0.062,0.098,0.094,0.173,0.115c0.064,0.018,0.204,0.006,0.431-0.021l2.956-0.387c0.237-0.027,0.372-0.062,0.425-0.088
	c0.06-0.032,0.104-0.088,0.136-0.167c0.031-0.078,0.037-0.182,0.027-0.308l-0.027-0.146l0.123-0.018l0.318,2.377l-0.122,0.016
	l-0.029-0.189c-0.01-0.13-0.047-0.235-0.107-0.307c-0.042-0.053-0.096-0.093-0.183-0.115c-0.055-0.01-0.194-0.01-0.415,0.021
	l-2.864,0.37c-0.237,0.035-0.378,0.068-0.44,0.099c-0.056,0.04-0.104,0.093-0.119,0.176c-0.011,0.053-0.005,0.184,0.021,0.397
	l0.054,0.373c0.032,0.24,0.097,0.43,0.199,0.574c0.104,0.146,0.265,0.267,0.452,0.36c0.202,0.088,0.481,0.162,0.854,0.224
	L92.476,46.449z"/>
<path fill="#FFFFFF" d="M95.247,48.519l-1.844,0.021v0.093c0,0.283,0.093,0.492,0.28,0.616c0.184,0.126,0.442,0.203,0.799,0.229
	v0.132l-2.373,0.035v-0.125c0.259-0.035,0.471-0.093,0.626-0.182c0.172-0.088,0.28-0.187,0.335-0.298
	c0.054-0.119,0.086-0.28,0.086-0.495l-1.284,0.016c-0.247,0.006-0.404,0.024-0.458,0.041c-0.06,0.021-0.103,0.064-0.14,0.125
	c-0.033,0.048-0.055,0.146-0.049,0.271v0.274c0.01,0.414,0.107,0.752,0.313,1.004c0.198,0.253,0.496,0.425,0.904,0.53v0.12
	L91,50.746l-0.05-3.884h0.124v0.149c0,0.13,0.021,0.235,0.065,0.31c0.037,0.062,0.092,0.104,0.172,0.138
	c0.055,0.021,0.188,0.032,0.415,0.027l2.987-0.043c0.206,0,0.329-0.013,0.379-0.024c0.08-0.021,0.134-0.058,0.178-0.125
	c0.063-0.081,0.091-0.202,0.091-0.344v-0.148h0.124l0.054,3.765l-1.348,0.011v-0.126c0.324-0.066,0.56-0.16,0.705-0.277
	c0.137-0.123,0.237-0.286,0.31-0.499c0.031-0.12,0.053-0.355,0.041-0.694V48.519z"/>
<path fill="#FFFFFF" d="M12.712,67.241l-0.116,0.048c-0.078-0.128-0.167-0.208-0.259-0.261c-0.135-0.054-0.437-0.113-0.917-0.155
	l-1.906-0.209L8.52,67.123C8.307,67.22,8.18,67.289,8.14,67.338c-0.043,0.037-0.065,0.105-0.079,0.192
	c-0.011,0.078,0.013,0.17,0.056,0.282l0.111,0.229l-0.111,0.053l-1.065-2.289l0.116-0.053l0.1,0.214
	c0.054,0.122,0.122,0.207,0.192,0.256c0.056,0.037,0.121,0.059,0.205,0.059c0.061,0,0.193-0.049,0.404-0.15l0.822-0.367l1.318-1.771
	c0.259-0.342,0.405-0.57,0.431-0.684c0.022-0.101,0.006-0.219-0.051-0.356l0.11-0.043l0.911,1.952l-0.116,0.054l-0.037-0.085
	c-0.055-0.118-0.111-0.198-0.165-0.225c-0.063-0.032-0.105-0.038-0.146-0.021c-0.07,0.031-0.216,0.198-0.439,0.491L9.687,66.43
	l1.583,0.172c0.393,0.048,0.636,0.048,0.736,0c0.048-0.033,0.088-0.074,0.1-0.145c0.021-0.091-0.006-0.229-0.083-0.415l0.11-0.055
	L12.712,67.241z"/>
<path fill="#FFFFFF" d="M14.901,70.891c0.394,0.597,0.521,1.205,0.377,1.824c-0.151,0.608-0.516,1.082-1.089,1.43
	c-0.491,0.298-1.011,0.416-1.556,0.362c-0.73-0.079-1.304-0.464-1.728-1.151c-0.426-0.688-0.521-1.366-0.278-2.027
	c0.189-0.523,0.542-0.944,1.054-1.254c0.569-0.348,1.173-0.443,1.796-0.283C14.095,69.94,14.57,70.309,14.901,70.891 M14.737,71.034
	c-0.221-0.347-0.564-0.507-1.038-0.474c-0.386,0.03-0.857,0.218-1.413,0.554c-0.663,0.395-1.083,0.811-1.258,1.232
	c-0.116,0.288-0.089,0.581,0.086,0.869c0.115,0.204,0.272,0.325,0.442,0.406c0.221,0.09,0.499,0.101,0.822,0.031
	c0.326-0.074,0.704-0.233,1.132-0.49c0.52-0.314,0.874-0.591,1.06-0.843c0.199-0.244,0.305-0.48,0.315-0.683
	C14.901,71.429,14.853,71.227,14.737,71.034"/>
<path fill="#FFFFFF" d="M18.708,76.448l-0.989,0.727l-0.065-0.097c0.181-0.224,0.296-0.404,0.348-0.544
	c0.049-0.148,0.054-0.298,0.021-0.459c-0.015-0.096-0.088-0.223-0.215-0.394l-0.197-0.267l-2.812,2.059
	c-0.188,0.139-0.292,0.234-0.326,0.294c-0.033,0.052-0.039,0.122-0.033,0.207c0.005,0.085,0.049,0.182,0.132,0.283l0.089,0.122
	l-0.101,0.076l-1.417-1.89l0.1-0.08l0.086,0.123c0.078,0.102,0.167,0.171,0.248,0.201c0.062,0.038,0.134,0.044,0.21,0.022
	c0.063-0.011,0.178-0.085,0.359-0.224l2.812-2.06l-0.2-0.268c-0.176-0.233-0.358-0.372-0.547-0.414
	c-0.265-0.044-0.54,0.011-0.838,0.169l-0.083-0.105l0.995-0.721L18.708,76.448z"/>
<path fill="#FFFFFF" d="M18.207,79.586l-0.938,0.849c-0.184,0.165-0.289,0.283-0.315,0.348c-0.027,0.063-0.027,0.132-0.006,0.212
	c0.026,0.075,0.105,0.198,0.242,0.347l-0.089,0.085l-1.561-1.7l0.086-0.076c0.146,0.15,0.253,0.235,0.332,0.267
	c0.083,0.022,0.148,0.033,0.216,0.012c0.067-0.021,0.193-0.113,0.375-0.268l2.176-1.968c0.189-0.166,0.293-0.271,0.315-0.337
	c0.026-0.068,0.026-0.148,0.006-0.224c-0.022-0.079-0.106-0.191-0.244-0.352l0.095-0.075l1.412,1.536
	c0.37,0.406,0.613,0.726,0.728,0.961c0.117,0.235,0.151,0.479,0.105,0.736c-0.039,0.256-0.159,0.474-0.37,0.661
	c-0.241,0.213-0.531,0.314-0.848,0.282c-0.21-0.027-0.431-0.1-0.668-0.271l-0.405,1.824c-0.049,0.245-0.07,0.395-0.064,0.48
	c0.01,0.106,0.048,0.214,0.126,0.31L18.818,83.3l-0.955-1.046l0.54-2.449L18.207,79.586z M19.852,78.104l-1.469,1.323l0.126,0.144
	c0.21,0.229,0.388,0.379,0.531,0.453c0.148,0.075,0.299,0.096,0.475,0.064c0.167-0.044,0.342-0.139,0.514-0.288
	c0.259-0.235,0.397-0.465,0.409-0.693c0.009-0.23-0.106-0.476-0.349-0.737L19.852,78.104z"/>
<path fill="#FFFFFF" d="M23.922,81.699c0.564,0.453,0.861,0.991,0.907,1.622c0.042,0.629-0.153,1.195-0.602,1.695
	c-0.384,0.427-0.842,0.692-1.38,0.802c-0.721,0.137-1.38-0.061-2.001-0.589c-0.605-0.533-0.9-1.15-0.864-1.855
	c0.021-0.555,0.226-1.056,0.623-1.505c0.446-0.502,0.989-0.769,1.627-0.8C22.874,81.037,23.437,81.24,23.922,81.699 M23.813,81.885
	c-0.311-0.271-0.692-0.325-1.133-0.144c-0.358,0.144-0.755,0.458-1.187,0.938c-0.51,0.578-0.784,1.1-0.828,1.548
	c-0.029,0.319,0.086,0.587,0.349,0.811c0.168,0.149,0.353,0.234,0.539,0.252c0.242,0.021,0.51-0.049,0.795-0.213
	c0.288-0.156,0.596-0.434,0.928-0.807c0.405-0.448,0.652-0.812,0.769-1.109c0.11-0.3,0.142-0.545,0.094-0.748
	C24.087,82.212,23.985,82.03,23.813,81.885"/>
<path fill="#FFFFFF" d="M28.522,85.129l-0.833,1.255l-0.11-0.08c0.157-0.349,0.203-0.689,0.126-1.014
	c-0.078-0.336-0.231-0.583-0.475-0.753c-0.188-0.123-0.372-0.183-0.546-0.149c-0.184,0.021-0.316,0.096-0.404,0.225
	c-0.056,0.078-0.092,0.171-0.098,0.261c-0.006,0.123,0.021,0.256,0.08,0.427c0.041,0.122,0.167,0.358,0.372,0.725
	c0.286,0.513,0.435,0.918,0.451,1.211c0.025,0.288-0.054,0.562-0.227,0.806c-0.212,0.307-0.523,0.486-0.922,0.546
	c-0.396,0.058-0.782-0.049-1.16-0.306c-0.115-0.084-0.213-0.17-0.301-0.267c-0.096-0.096-0.19-0.234-0.305-0.404
	c-0.059-0.097-0.123-0.166-0.176-0.204c-0.051-0.03-0.109-0.048-0.188-0.048c-0.084,0-0.16,0.021-0.244,0.069l-0.105-0.063
	l0.976-1.392l0.105,0.069c-0.195,0.447-0.253,0.852-0.163,1.214c0.083,0.37,0.259,0.636,0.521,0.824
	c0.205,0.138,0.405,0.201,0.61,0.169c0.197-0.031,0.349-0.111,0.448-0.255c0.065-0.091,0.106-0.186,0.115-0.301
	c0.011-0.116-0.009-0.243-0.05-0.382c-0.044-0.139-0.144-0.358-0.303-0.636c-0.227-0.399-0.372-0.703-0.432-0.922
	c-0.072-0.219-0.094-0.427-0.072-0.629c0.021-0.198,0.088-0.387,0.21-0.557c0.209-0.288,0.491-0.469,0.855-0.528
	c0.366-0.053,0.713,0.039,1.05,0.262c0.117,0.086,0.227,0.176,0.313,0.289c0.073,0.079,0.151,0.192,0.232,0.336
	c0.079,0.15,0.146,0.234,0.199,0.271c0.044,0.032,0.096,0.044,0.138,0.032c0.052-0.01,0.126-0.063,0.226-0.152L28.522,85.129z"/>
<path fill="#FFFFFF" d="M33.18,87.674l-0.646,1.354l-0.126-0.058c0.115-0.368,0.109-0.711-0.012-1.03
	c-0.121-0.31-0.313-0.534-0.576-0.667c-0.208-0.101-0.391-0.134-0.567-0.08c-0.17,0.042-0.297,0.145-0.364,0.278
	c-0.044,0.091-0.065,0.181-0.059,0.271c0.015,0.123,0.053,0.263,0.141,0.411c0.054,0.118,0.217,0.338,0.47,0.674
	c0.353,0.468,0.564,0.853,0.624,1.13c0.057,0.293,0.024,0.566-0.115,0.827c-0.171,0.336-0.449,0.561-0.834,0.672
	c-0.385,0.11-0.79,0.06-1.192-0.145c-0.127-0.063-0.242-0.128-0.341-0.225c-0.096-0.074-0.217-0.191-0.349-0.351
	c-0.079-0.086-0.151-0.138-0.211-0.178c-0.05-0.025-0.115-0.031-0.193-0.025c-0.075,0.012-0.153,0.053-0.232,0.107l-0.109-0.042
	l0.773-1.526l0.111,0.063c-0.126,0.465-0.126,0.881,0.01,1.228c0.132,0.347,0.349,0.592,0.636,0.736
	c0.219,0.111,0.429,0.138,0.623,0.084c0.196-0.052,0.331-0.159,0.416-0.318c0.048-0.097,0.065-0.203,0.06-0.315
	c-0.006-0.113-0.038-0.236-0.1-0.368c-0.065-0.129-0.199-0.325-0.391-0.581c-0.278-0.369-0.464-0.651-0.564-0.86
	c-0.1-0.202-0.147-0.404-0.153-0.608c-0.007-0.201,0.037-0.394,0.132-0.581c0.159-0.325,0.417-0.538,0.771-0.64
	c0.347-0.101,0.709-0.064,1.074,0.11c0.126,0.07,0.247,0.151,0.358,0.234c0.079,0.076,0.168,0.184,0.268,0.307
	c0.105,0.131,0.178,0.212,0.232,0.24c0.058,0.026,0.1,0.032,0.151,0.012c0.044-0.018,0.111-0.076,0.198-0.184L33.18,87.674z"/>
<path fill="#FFFFFF" d="M35.082,88.849l-0.652,1.71l0.082,0.034c0.271,0.102,0.491,0.09,0.685-0.034
	c0.184-0.122,0.349-0.347,0.514-0.655l0.115,0.054l-0.837,2.192l-0.123-0.043c0.069-0.249,0.09-0.464,0.073-0.645
	c-0.023-0.187-0.077-0.33-0.167-0.422c-0.088-0.085-0.231-0.175-0.427-0.25l-0.454,1.185c-0.088,0.234-0.14,0.378-0.14,0.438
	c0,0.063,0.025,0.111,0.067,0.164c0.038,0.055,0.123,0.112,0.243,0.154l0.253,0.096c0.399,0.15,0.748,0.177,1.054,0.087
	c0.311-0.097,0.588-0.31,0.835-0.642l0.118,0.044l-0.702,1.269l-3.667-1.375l0.042-0.118l0.138,0.049
	c0.121,0.042,0.232,0.069,0.322,0.042c0.073,0,0.126-0.036,0.188-0.097c0.038-0.036,0.1-0.164,0.18-0.377l1.062-2.765
	c0.071-0.192,0.109-0.309,0.117-0.353c0.012-0.079-0.013-0.153-0.052-0.214c-0.053-0.09-0.153-0.159-0.292-0.212l-0.145-0.042
	L33.558,88l3.552,1.34l-0.478,1.234l-0.117-0.041c0.058-0.33,0.058-0.576-0.006-0.759c-0.059-0.164-0.175-0.318-0.353-0.459
	c-0.105-0.084-0.313-0.18-0.633-0.297L35.082,88.849z"/>
<path fill="#FFFFFF" d="M38.67,92.315l-0.307,1.222c-0.063,0.239-0.078,0.389-0.067,0.458c0.009,0.069,0.05,0.134,0.115,0.177
	c0.067,0.06,0.205,0.111,0.404,0.159l-0.035,0.123l-2.252-0.561l0.032-0.117c0.205,0.048,0.349,0.065,0.431,0.048
	c0.079-0.021,0.144-0.058,0.181-0.11c0.046-0.054,0.095-0.192,0.157-0.427l0.717-2.835c0.054-0.24,0.084-0.389,0.073-0.458
	c-0.019-0.069-0.055-0.132-0.121-0.176c-0.063-0.065-0.193-0.112-0.398-0.16l0.027-0.123l2.049,0.507
	c0.537,0.135,0.916,0.266,1.143,0.395c0.226,0.138,0.393,0.32,0.502,0.555c0.1,0.236,0.128,0.492,0.062,0.752
	c-0.088,0.32-0.271,0.561-0.558,0.711c-0.184,0.096-0.416,0.138-0.702,0.138l0.684,1.739c0.09,0.23,0.16,0.375,0.205,0.434
	c0.071,0.09,0.165,0.153,0.282,0.187l-0.027,0.117l-1.386-0.342l-0.918-2.335L38.67,92.315z M39.212,90.177l-0.481,1.914
	l0.184,0.043c0.303,0.075,0.535,0.101,0.695,0.091c0.166-0.021,0.307-0.091,0.43-0.214c0.115-0.122,0.209-0.293,0.272-0.522
	c0.075-0.341,0.06-0.603-0.058-0.8c-0.115-0.197-0.347-0.335-0.696-0.423L39.212,90.177z"/>
<path fill="#FFFFFF" d="M46.648,91.258l-0.012,0.124c-0.172,0.005-0.332,0.08-0.474,0.202c-0.111,0.103-0.289,0.337-0.525,0.714
	l-2.026,3.187l-0.109-0.017l-1.044-3.75c-0.123-0.448-0.211-0.715-0.267-0.801c-0.048-0.085-0.159-0.148-0.337-0.192l0.017-0.116
	l2.153,0.299l-0.016,0.117l-0.073-0.012c-0.192-0.021-0.332-0.021-0.407,0.021c-0.057,0.021-0.09,0.071-0.095,0.135
	c-0.004,0.036-0.004,0.079,0.005,0.143c0.006,0.055,0.05,0.208,0.117,0.453l0.646,2.347l1.165-1.85
	c0.138-0.224,0.232-0.373,0.265-0.453c0.033-0.08,0.056-0.145,0.067-0.203c0.01-0.063,0-0.122-0.034-0.177
	c-0.027-0.057-0.071-0.102-0.138-0.138c-0.084-0.054-0.211-0.086-0.37-0.111l0.021-0.124L46.648,91.258z"/>
<path fill="#FFFFFF" d="M49.04,95.73l-0.012,0.116l-2.369-0.128l0.009-0.118l0.151,0.006c0.132,0.01,0.238-0.012,0.318-0.059
	c0.061-0.021,0.105-0.075,0.14-0.144c0.033-0.049,0.048-0.191,0.06-0.417l0.167-2.949c0.006-0.235,0.006-0.374-0.02-0.427
	c-0.021-0.068-0.063-0.117-0.142-0.171c-0.071-0.042-0.165-0.064-0.291-0.074l-0.158-0.011l0.006-0.128l2.371,0.139v0.122
	l-0.155-0.011c-0.134-0.006-0.245,0.011-0.32,0.048c-0.062,0.031-0.111,0.086-0.148,0.149c-0.024,0.06-0.046,0.192-0.063,0.416
	l-0.153,2.956c-0.015,0.225-0.012,0.372,0.011,0.438c0.021,0.054,0.069,0.105,0.142,0.153c0.073,0.045,0.176,0.072,0.299,0.081
	L49.04,95.73z"/>
<path fill="#FFFFFF" d="M53.719,91.184l0.049,1.558h-0.132c-0.111-0.404-0.302-0.709-0.574-0.917
	c-0.274-0.203-0.579-0.305-0.922-0.299c-0.28,0.012-0.539,0.107-0.774,0.267c-0.223,0.171-0.396,0.39-0.495,0.65
	c-0.132,0.342-0.186,0.711-0.176,1.121c0.017,0.401,0.076,0.768,0.186,1.095c0.117,0.319,0.283,0.569,0.51,0.736
	c0.221,0.159,0.506,0.233,0.854,0.222c0.288-0.01,0.547-0.078,0.784-0.212c0.226-0.123,0.476-0.348,0.724-0.662l0.016,0.389
	c-0.249,0.273-0.508,0.47-0.775,0.6c-0.277,0.122-0.591,0.19-0.964,0.213c-0.485,0.01-0.916-0.075-1.296-0.257
	c-0.38-0.181-0.681-0.447-0.896-0.801c-0.217-0.356-0.332-0.734-0.343-1.141c-0.015-0.428,0.09-0.844,0.305-1.228
	c0.216-0.394,0.508-0.705,0.89-0.918c0.375-0.233,0.775-0.348,1.207-0.362c0.328-0.01,0.666,0.048,1.018,0.171
	c0.215,0.08,0.341,0.111,0.397,0.111c0.072,0,0.134-0.031,0.183-0.091c0.047-0.042,0.084-0.132,0.099-0.245H53.719z"/>
<path fill="#FFFFFF" d="M57.044,95.228l0.016,0.118l-2.351,0.318l-0.012-0.126l0.148-0.017c0.126-0.027,0.231-0.058,0.303-0.112
	c0.056-0.042,0.088-0.096,0.109-0.182c0.02-0.052,0.012-0.192-0.021-0.415l-0.4-2.924c-0.03-0.229-0.063-0.373-0.096-0.427
	c-0.031-0.054-0.082-0.096-0.167-0.129c-0.08-0.032-0.18-0.042-0.306-0.027l-0.152,0.027L54.1,91.205l2.349-0.31l0.02,0.117
	l-0.152,0.018c-0.13,0.021-0.226,0.057-0.305,0.111c-0.051,0.042-0.09,0.101-0.117,0.182c-0.009,0.053-0.004,0.192,0.027,0.414
	l0.4,2.93c0.033,0.23,0.063,0.368,0.096,0.428c0.031,0.048,0.081,0.091,0.167,0.124c0.086,0.029,0.185,0.041,0.315,0.021
	L57.044,95.228z"/>
<path fill="#FFFFFF" d="M58.888,90.299c0.696-0.191,1.321-0.138,1.865,0.192c0.545,0.319,0.901,0.8,1.063,1.45
	c0.14,0.555,0.098,1.083-0.129,1.58c-0.285,0.666-0.832,1.097-1.624,1.295c-0.793,0.192-1.465,0.081-2.033-0.345
	c-0.452-0.337-0.749-0.797-0.895-1.368c-0.155-0.649-0.069-1.246,0.271-1.792C57.739,90.772,58.235,90.437,58.888,90.299
	 M58.979,90.496c-0.398,0.103-0.657,0.379-0.766,0.837c-0.086,0.385-0.047,0.876,0.108,1.505c0.184,0.746,0.454,1.264,0.803,1.553
	c0.25,0.206,0.546,0.272,0.874,0.186c0.221-0.063,0.396-0.159,0.512-0.297c0.163-0.183,0.249-0.438,0.282-0.77
	c0.033-0.324-0.018-0.735-0.14-1.215c-0.143-0.577-0.292-1.004-0.487-1.261c-0.173-0.262-0.366-0.426-0.56-0.501
	C59.412,90.458,59.208,90.442,58.979,90.496"/>
<path fill="#FFFFFF" d="M64.317,88.458l0.577,1.389l-0.123,0.047c-0.195-0.327-0.454-0.554-0.776-0.674
	c-0.323-0.116-0.614-0.126-0.891-0.021c-0.215,0.074-0.36,0.197-0.436,0.361c-0.082,0.162-0.086,0.313-0.038,0.46
	c0.038,0.097,0.092,0.161,0.166,0.219c0.099,0.074,0.239,0.135,0.399,0.177c0.13,0.032,0.398,0.063,0.82,0.096
	c0.593,0.053,1.014,0.156,1.272,0.299c0.253,0.15,0.432,0.358,0.545,0.636c0.134,0.346,0.112,0.703-0.054,1.062
	c-0.179,0.362-0.481,0.617-0.9,0.783c-0.131,0.06-0.265,0.092-0.393,0.107c-0.137,0.021-0.298,0.026-0.51,0.026
	c-0.112-0.006-0.204,0.006-0.268,0.031c-0.06,0.018-0.104,0.06-0.146,0.128c-0.05,0.061-0.065,0.14-0.071,0.236l-0.112,0.052
	l-0.625-1.577l0.107-0.055c0.27,0.418,0.583,0.684,0.934,0.816c0.349,0.135,0.679,0.145,0.984,0.026
	c0.229-0.09,0.389-0.225,0.476-0.404c0.092-0.177,0.102-0.354,0.032-0.512c-0.032-0.104-0.104-0.192-0.189-0.268
	c-0.09-0.065-0.205-0.129-0.34-0.162c-0.145-0.047-0.377-0.083-0.7-0.104c-0.465-0.039-0.804-0.096-1.023-0.161
	c-0.222-0.069-0.411-0.16-0.563-0.288c-0.155-0.128-0.269-0.298-0.349-0.485c-0.124-0.335-0.115-0.666,0.036-0.996
	c0.157-0.331,0.422-0.566,0.799-0.716c0.129-0.054,0.274-0.091,0.421-0.103c0.101-0.015,0.237-0.015,0.404,0
	c0.167,0.012,0.274,0.006,0.339-0.015c0.054-0.015,0.087-0.054,0.104-0.097c0.014-0.048,0.014-0.138-0.006-0.277L64.317,88.458z"/>
<path fill="#FFFFFF" d="M69.117,88.911l0.631,1.079c0.124,0.213,0.211,0.335,0.265,0.373c0.065,0.041,0.134,0.053,0.217,0.053
	c0.086,0,0.22-0.053,0.398-0.16l0.06,0.107l-1.99,1.141l-0.07-0.105c0.184-0.107,0.297-0.193,0.339-0.263
	c0.05-0.07,0.071-0.145,0.065-0.208c-0.006-0.063-0.075-0.209-0.194-0.416l-1.477-2.529c-0.12-0.208-0.206-0.33-0.271-0.372
	c-0.054-0.039-0.123-0.06-0.216-0.054c-0.08,0.006-0.216,0.063-0.395,0.164l-0.057-0.11l1.708-0.977
	c0.566-0.324,1.031-0.453,1.391-0.4c0.362,0.064,0.625,0.234,0.804,0.543c0.146,0.245,0.193,0.507,0.136,0.78
	c-0.05,0.267-0.189,0.512-0.442,0.736C69.86,88.452,69.56,88.656,69.117,88.911 M68.007,87.002l0.981,1.686
	c0.063-0.031,0.106-0.059,0.14-0.085c0.235-0.129,0.378-0.3,0.426-0.513c0.047-0.213-0.016-0.459-0.179-0.752
	c-0.173-0.288-0.36-0.459-0.565-0.521c-0.211-0.061-0.437-0.027-0.689,0.122L68.007,87.002z"/>
<path fill="#FFFFFF" d="M69.764,85.715l1.887-1.366l0.076,0.103l-0.091,0.065c-0.146,0.1-0.232,0.19-0.259,0.255
	c-0.039,0.068-0.039,0.138-0.027,0.203c0.016,0.069,0.096,0.201,0.253,0.416l1.31,1.782c0.237,0.32,0.422,0.513,0.546,0.586
	c0.123,0.076,0.274,0.098,0.441,0.086c0.166-0.01,0.341-0.08,0.502-0.202c0.199-0.144,0.333-0.314,0.416-0.503
	c0.068-0.192,0.09-0.384,0.036-0.597c-0.036-0.197-0.205-0.491-0.491-0.881l-1.083-1.479c-0.124-0.17-0.226-0.271-0.312-0.314
	c-0.087-0.041-0.169-0.057-0.237-0.047c-0.108,0.016-0.239,0.074-0.391,0.182l-0.068-0.103l1.267-0.91l0.065,0.104l-0.065,0.049
	c-0.107,0.067-0.184,0.155-0.216,0.251c-0.043,0.085-0.043,0.181-0.01,0.287c0.021,0.076,0.08,0.187,0.188,0.331l1.008,1.387
	c0.323,0.427,0.523,0.753,0.598,0.983c0.083,0.229,0.071,0.5-0.026,0.82c-0.108,0.319-0.346,0.613-0.723,0.886
	c-0.322,0.234-0.592,0.362-0.831,0.405c-0.317,0.053-0.592,0.032-0.817-0.075c-0.232-0.104-0.461-0.318-0.675-0.617l-1.315-1.772
	c-0.146-0.212-0.259-0.33-0.318-0.362c-0.064-0.042-0.136-0.054-0.216-0.042c-0.075,0.01-0.194,0.079-0.345,0.192L69.764,85.715z"/>
<path fill="#FFFFFF" d="M77.308,82.456c0.383-0.213,0.689-0.325,0.916-0.336c0.317-0.017,0.588,0.092,0.805,0.325
	c0.227,0.256,0.316,0.555,0.269,0.901c-0.075,0.422-0.345,0.843-0.824,1.275l-1.71,1.525l-0.081-0.09
	c0.155-0.135,0.241-0.245,0.274-0.321c0.033-0.078,0.033-0.153,0.012-0.219c-0.012-0.074-0.107-0.19-0.271-0.368l-1.973-2.158
	c-0.168-0.183-0.281-0.29-0.351-0.312c-0.06-0.031-0.134-0.036-0.222-0.017c-0.075,0.027-0.194,0.108-0.355,0.252l-0.076-0.096
	l1.618-1.452c0.378-0.341,0.689-0.549,0.906-0.623c0.227-0.082,0.442-0.092,0.652-0.037c0.222,0.053,0.4,0.159,0.544,0.304
	c0.142,0.164,0.217,0.356,0.217,0.592C77.659,81.826,77.534,82.115,77.308,82.456 M76.343,83.191c0.235-0.2,0.388-0.383,0.441-0.538
	c0.07-0.154,0.086-0.299,0.059-0.454c-0.026-0.148-0.101-0.293-0.241-0.436c-0.142-0.15-0.282-0.246-0.422-0.289
	c-0.14-0.038-0.291-0.038-0.446,0.011c-0.157,0.053-0.352,0.181-0.589,0.399L76.343,83.191z M76.516,83.396l0.97,1.066l0.112,0.118
	c0.082,0.09,0.173,0.137,0.254,0.148c0.086,0,0.178-0.042,0.27-0.116c0.129-0.116,0.228-0.258,0.28-0.417
	c0.06-0.161,0.071-0.32,0.027-0.485c-0.049-0.165-0.123-0.314-0.253-0.448c-0.141-0.154-0.302-0.262-0.485-0.325
	c-0.184-0.06-0.366-0.054-0.538,0.01C76.98,83.012,76.763,83.161,76.516,83.396"/>
<path fill="#FFFFFF" d="M81.967,78.859l1.051,1.201l-2.749,2.919l-0.086-0.085l0.096-0.107c0.092-0.091,0.151-0.182,0.173-0.277
	c0.011-0.064,0-0.128-0.033-0.208c-0.021-0.048-0.118-0.154-0.279-0.31L77.95,79.98c-0.167-0.16-0.279-0.245-0.34-0.266
	c-0.053-0.021-0.124-0.021-0.21,0c-0.087,0.026-0.161,0.079-0.259,0.17l-0.098,0.111l-0.093-0.08l1.646-1.748l0.086,0.079
	l-0.129,0.144c-0.086,0.096-0.14,0.192-0.161,0.278c-0.012,0.064-0.012,0.128,0.021,0.207c0.021,0.055,0.119,0.155,0.286,0.315
	l2.114,1.947c0.166,0.154,0.285,0.245,0.349,0.271c0.071,0.021,0.136,0.016,0.216-0.021c0.045-0.026,0.146-0.116,0.292-0.271
	l0.265-0.272c0.155-0.177,0.264-0.353,0.313-0.522c0.047-0.171,0.047-0.362-0.006-0.57c-0.06-0.209-0.173-0.47-0.366-0.795
	L81.967,78.859z"/>
<path fill="#FFFFFF" d="M84.895,77.602l0.098,0.08l-1.512,1.813l-0.092-0.079l0.092-0.113c0.093-0.101,0.141-0.196,0.152-0.282
	c0.011-0.063,0-0.14-0.033-0.209c-0.026-0.058-0.13-0.153-0.312-0.293l-2.299-1.877c-0.176-0.146-0.301-0.224-0.36-0.251
	c-0.059-0.016-0.135-0.011-0.211,0.027c-0.087,0.03-0.161,0.09-0.241,0.181l-0.104,0.117l-0.095-0.074l1.509-1.815l0.098,0.076
	l-0.098,0.116c-0.075,0.097-0.129,0.198-0.146,0.289c-0.01,0.064,0,0.134,0.037,0.202c0.033,0.053,0.131,0.155,0.304,0.298
	l2.307,1.879c0.173,0.149,0.296,0.23,0.355,0.246c0.064,0.011,0.131,0.011,0.217-0.021c0.086-0.034,0.161-0.098,0.241-0.192
	L84.895,77.602z"/>
<path fill="#FFFFFF" d="M84.085,71.194l1.272,0.918l-0.08,0.101c-0.383-0.153-0.75-0.192-1.085-0.106
	c-0.34,0.086-0.599,0.262-0.804,0.533c-0.167,0.225-0.253,0.48-0.259,0.769c-0.015,0.283,0.061,0.544,0.199,0.784
	c0.196,0.314,0.455,0.586,0.788,0.832c0.324,0.235,0.657,0.412,0.993,0.523c0.327,0.112,0.625,0.134,0.896,0.06
	c0.259-0.081,0.494-0.257,0.7-0.535c0.168-0.229,0.27-0.469,0.313-0.735c0.042-0.268,0.016-0.592-0.076-0.981l0.317,0.234
	c0.06,0.356,0.06,0.682-0.006,0.971c-0.063,0.289-0.209,0.587-0.425,0.876c-0.286,0.393-0.62,0.673-0.997,0.863
	c-0.378,0.192-0.776,0.256-1.187,0.202c-0.421-0.048-0.794-0.192-1.121-0.427c-0.345-0.257-0.609-0.586-0.794-1.003
	c-0.179-0.405-0.241-0.82-0.179-1.259c0.045-0.427,0.2-0.821,0.455-1.163c0.188-0.256,0.447-0.49,0.765-0.684
	c0.194-0.121,0.303-0.202,0.33-0.244c0.036-0.064,0.059-0.123,0.048-0.191c-0.012-0.081-0.06-0.155-0.141-0.235L84.085,71.194z"/>
<path fill="#FFFFFF" d="M85.638,68.857c0.356-0.613,0.858-1.009,1.469-1.146c0.624-0.14,1.222-0.032,1.788,0.32
	c0.486,0.299,0.832,0.702,1.025,1.222c0.253,0.682,0.161,1.359-0.271,2.048c-0.432,0.683-1.002,1.063-1.714,1.147
	c-0.55,0.063-1.09-0.063-1.597-0.372c-0.57-0.354-0.921-0.845-1.056-1.464C85.144,69.988,85.26,69.406,85.638,68.857 M85.843,68.938
	c-0.227,0.347-0.209,0.726,0.032,1.132c0.2,0.33,0.583,0.672,1.133,1.009c0.657,0.409,1.208,0.591,1.672,0.56
	c0.313-0.027,0.571-0.183,0.755-0.459c0.119-0.193,0.173-0.396,0.162-0.577c-0.021-0.239-0.129-0.49-0.335-0.746
	c-0.21-0.257-0.528-0.513-0.96-0.784c-0.506-0.314-0.911-0.502-1.219-0.57c-0.318-0.055-0.571-0.055-0.771,0.031
	C86.119,68.611,85.961,68.745,85.843,68.938"/>
<path fill="#FFFFFF" d="M88.519,63.827l1.348,0.683l-0.071,0.122c-0.36-0.122-0.706-0.122-1.029-0.017
	c-0.324,0.119-0.562,0.3-0.701,0.556c-0.107,0.192-0.141,0.378-0.096,0.556c0.042,0.17,0.14,0.294,0.269,0.373
	c0.085,0.042,0.178,0.068,0.281,0.064c0.113-0.006,0.247-0.055,0.42-0.128c0.113-0.054,0.339-0.203,0.689-0.438
	c0.485-0.341,0.863-0.534,1.155-0.586c0.29-0.054,0.57,0,0.835,0.138c0.34,0.177,0.544,0.458,0.647,0.844
	c0.102,0.394,0.037,0.778-0.184,1.178c-0.065,0.129-0.146,0.235-0.232,0.338c-0.086,0.089-0.205,0.202-0.366,0.33
	c-0.092,0.073-0.157,0.139-0.194,0.203c-0.021,0.048-0.031,0.116-0.021,0.191c0.012,0.075,0.033,0.149,0.104,0.233l-0.061,0.108
	l-1.504-0.811l0.06-0.107c0.474,0.139,0.884,0.149,1.24,0.032c0.354-0.129,0.615-0.331,0.765-0.614
	c0.118-0.219,0.157-0.421,0.109-0.618c-0.044-0.197-0.151-0.337-0.314-0.415c-0.091-0.049-0.193-0.075-0.313-0.075
	c-0.107,0.006-0.237,0.026-0.378,0.089c-0.14,0.054-0.333,0.183-0.604,0.368c-0.372,0.263-0.669,0.438-0.878,0.528
	c-0.211,0.086-0.415,0.134-0.621,0.134c-0.205,0.006-0.387-0.048-0.582-0.149c-0.313-0.165-0.518-0.432-0.62-0.778
	c-0.092-0.353-0.047-0.709,0.146-1.062c0.07-0.128,0.156-0.239,0.248-0.342c0.081-0.084,0.184-0.165,0.324-0.256
	c0.13-0.103,0.216-0.182,0.243-0.234c0.027-0.049,0.032-0.096,0.016-0.146c-0.016-0.048-0.075-0.11-0.173-0.201L88.519,63.827z"/>
<path fill="#FFFFFF" d="M94.503,55.994c0,0.962-0.788,1.74-1.757,1.74c-0.971,0-1.759-0.778-1.759-1.74
	c0-0.959,0.788-1.744,1.759-1.744C93.715,54.25,94.503,55.035,94.503,55.994"/>
<path fill="#FFFFFF" d="M8.062,55.813c0,0.971-0.79,1.745-1.755,1.745c-0.974,0-1.761-0.774-1.761-1.745
	c0-0.949,0.787-1.733,1.761-1.733C7.271,54.08,8.062,54.864,8.062,55.813"/>
</svg>
