<?xml version="1.0" encoding="utf-8"?>
<!-- Generator: Adobe Illustrator 15.0.0, SVG Export Plug-In  -->
<!DOCTYPE svg PUBLIC "-//W3C//DTD SVG 1.1//EN" "http://www.w3.org/Graphics/SVG/1.1/DTD/svg11.dtd" [
	<!ENTITY ns_flows "http://ns.adobe.com/Flows/1.0/">
]>
<svg version="1.1"
	 xmlns="http://www.w3.org/2000/svg" xmlns:xlink="http://www.w3.org/1999/xlink" xmlns:a="http://ns.adobe.com/AdobeSVGViewerExtensions/3.0/"
	 x="0px" y="0px" width="100px" height="100px" viewBox="-0.911 -0.421 100 100" enable-background="new -0.911 -0.421 100 100"
	 xml:space="preserve">
<defs>
</defs>
<path fill="#F1F3EE" d="M98.716,49.732c0,27.465-22.095,49.735-49.354,49.735C22.104,99.467,0,77.197,0,49.732
	C0,22.268,22.104,0,49.361,0C76.621,0,98.716,22.268,98.716,49.732"/>
<path fill="#313332" d="M45.544,58.993c-6.719,0-12.181-5.504-12.181-12.274c0-6.766,5.462-12.276,12.181-12.276
	c6.721,0,12.183,5.511,12.183,12.276c0,0.105-0.015,0.206-0.019,0.314h15.654c0.009-1.163-0.034-2.331-0.157-3.494
	c-0.092-0.789-1.004-1.382-1.796-1.382c-2.552,0-4.814-1.511-5.773-3.849c-0.966-2.391-0.34-5.187,1.561-6.949
	c0.599-0.55,0.672-1.476,0.17-2.116c-1.309-1.672-2.792-3.187-4.413-4.498c-0.637-0.509-1.565-0.433-2.118,0.178
	c-1.665,1.853-4.653,2.542-6.955,1.572c-2.407-1.018-3.915-3.47-3.768-6.103c0.046-0.82-0.549-1.542-1.366-1.636
	c-2.091-0.242-4.182-0.248-6.273-0.015c-0.805,0.089-1.41,0.789-1.382,1.604c0.092,2.606-1.439,5.018-3.816,5.993
	c-2.281,0.939-5.245,0.254-6.896-1.581c-0.556-0.605-1.469-0.681-2.11-0.176c-1.674,1.318-3.19,2.829-4.514,4.493
	c-0.516,0.643-0.437,1.578,0.168,2.131c1.944,1.771,2.567,4.588,1.56,7.007c-0.958,2.31-3.341,3.8-6.064,3.8
	c-0.89-0.028-1.516,0.569-1.614,1.381c-0.241,2.111-0.247,4.26-0.009,6.387c0.085,0.792,1.031,1.38,1.827,1.38
	c2.432-0.062,4.765,1.451,5.738,3.849c0.971,2.395,0.345,5.185-1.557,6.951c-0.602,0.548-0.679,1.471-0.172,2.113
	c1.293,1.658,2.779,3.175,4.41,4.496c0.641,0.52,1.568,0.448,2.124-0.167c1.667-1.86,4.652-2.546,6.946-1.578
	c2.41,1.012,3.921,3.465,3.774,6.098c-0.046,0.83,0.556,1.547,1.372,1.641c1.06,0.123,2.134,0.188,3.209,0.188
	c0.037,0,0.08-0.003,0.123-0.003V58.993H45.544z"/>
<path fill="#E6B706" d="M54.906,49.554C56.048,46.404,54,37.498,45.87,37.722c-0.377,0.006-1.111,0.218-0.371,0.861
	c1.769,1.518,2.637,2.417,3.11,2.887c1.438,1.418,0.59,5.158-0.963,6.85c-1.554,1.694-5.42,2.168-6.75,1.201
	c-0.786-0.58-1.824-1.651-2.662-2.567c-0.985-1.058-1.017-0.029-0.982,0.409c0.675,8.029,9.198,9.657,12.069,7.856
	c0,0,10.818,10.173,17.437,16.479c4.688,4.467,10.203-1.535,5.732-5.532C67.025,61.292,54.906,49.554,54.906,49.554"/>
</svg>
